<svg width="25" height="24" viewBox="0 0 25 24" fill="none" xmlns="http://www.w3.org/2000/svg">
<path d="M19.0671 9.50001H18.7471L17.4971 6.38001C17.2739 5.82527 16.8899 5.3499 16.3946 5.01492C15.8992 4.67993 15.3151 4.50063 14.7171 4.50001H8.71711C8.0224 4.49802 7.34853 4.7372 6.81052 5.17673C6.27252 5.61625 5.90373 6.22886 5.76711 6.91001L5.24711 9.50001H5.06711C4.27146 9.50001 3.5084 9.81608 2.94579 10.3787C2.38318 10.9413 2.06711 11.7044 2.06711 12.5V15.5C2.06711 15.7652 2.17246 16.0196 2.36 16.2071C2.54754 16.3947 2.80189 16.5 3.06711 16.5H4.06711C4.06711 17.2957 4.38318 18.0587 4.94579 18.6213C5.5084 19.1839 6.27146 19.5 7.06711 19.5C7.86276 19.5 8.62582 19.1839 9.18843 18.6213C9.75104 18.0587 10.0671 17.2957 10.0671 16.5H14.0671C14.0671 17.2957 14.3832 18.0587 14.9458 18.6213C15.5084 19.1839 16.2715 19.5 17.0671 19.5C17.8628 19.5 18.6258 19.1839 19.1884 18.6213C19.751 18.0587 20.0671 17.2957 20.0671 16.5H21.0671C21.3323 16.5 21.5867 16.3947 21.7742 16.2071C21.9618 16.0196 22.0671 15.7652 22.0671 15.5V12.5C22.0671 11.7044 21.751 10.9413 21.1884 10.3787C20.6258 9.81608 19.8628 9.50001 19.0671 9.50001ZM13.0671 6.50001H14.7171C14.9157 6.50181 15.1092 6.56269 15.2731 6.67488C15.4369 6.78708 15.5636 6.94552 15.6371 7.13001L16.5871 9.50001H13.0671V6.50001ZM7.72711 7.30001C7.77386 7.07074 7.89953 6.86511 8.08225 6.71894C8.26497 6.57277 8.49316 6.49529 8.72711 6.50001H11.0671V9.50001H7.28711L7.72711 7.30001ZM7.06711 17.5C6.86933 17.5 6.67599 17.4414 6.51154 17.3315C6.34709 17.2216 6.21892 17.0654 6.14323 16.8827C6.06754 16.7 6.04774 16.4989 6.08632 16.3049C6.12491 16.1109 6.22015 15.9328 6.36 15.7929C6.49985 15.6531 6.67804 15.5578 6.87202 15.5192C7.066 15.4806 7.26707 15.5004 7.44979 15.5761C7.63252 15.6518 7.7887 15.78 7.89858 15.9444C8.00846 16.1089 8.06711 16.3022 8.06711 16.5C8.06711 16.7652 7.96175 17.0196 7.77421 17.2071C7.58668 17.3947 7.33232 17.5 7.06711 17.5ZM17.0671 17.5C16.8693 17.5 16.676 17.4414 16.5115 17.3315C16.3471 17.2216 16.2189 17.0654 16.1432 16.8827C16.0675 16.7 16.0477 16.4989 16.0863 16.3049C16.1249 16.1109 16.2201 15.9328 16.36 15.7929C16.4999 15.6531 16.678 15.5578 16.872 15.5192C17.066 15.4806 17.2671 15.5004 17.4498 15.5761C17.6325 15.6518 17.7887 15.78 17.8986 15.9444C18.0085 16.1089 18.0671 16.3022 18.0671 16.5C18.0671 16.7652 17.9618 17.0196 17.7742 17.2071C17.5867 17.3947 17.3323 17.5 17.0671 17.5ZM20.0671 14.5H19.2871C19.0059 14.1907 18.6632 13.9435 18.2809 13.7743C17.8986 13.6052 17.4852 13.5178 17.0671 13.5178C16.6491 13.5178 16.2356 13.6052 15.8533 13.7743C15.471 13.9435 15.1283 14.1907 14.8471 14.5H9.28711C9.00593 14.1907 8.66319 13.9435 8.28089 13.7743C7.89859 13.6052 7.48516 13.5178 7.06711 13.5178C6.64906 13.5178 6.23563 13.6052 5.85333 13.7743C5.47102 13.9435 5.12829 14.1907 4.84711 14.5H4.06711V12.5C4.06711 12.2348 4.17247 11.9804 4.36 11.7929C4.54754 11.6054 4.80189 11.5 5.06711 11.5H19.0671C19.3323 11.5 19.5867 11.6054 19.7742 11.7929C19.9618 11.9804 20.0671 12.2348 20.0671 12.5V14.5Z" fill="#20C752"/>
</svg>
