<svg width="25" height="24" viewBox="0 0 25 24" fill="none" xmlns="http://www.w3.org/2000/svg">
<path d="M12.5336 19C11.81 19.0006 11.0936 18.8557 10.4271 18.5739C9.76054 18.2922 9.15743 17.8794 8.65357 17.36C7.75044 16.4281 7.19037 15.2173 7.06502 13.9257C6.93968 12.6341 7.25648 11.3381 7.96357 10.25L6.53357 8.82001C5.46106 10.294 4.9432 12.0992 5.07125 13.9176C5.19931 15.736 5.96506 17.4509 7.23357 18.76C7.92163 19.4697 8.74543 20.0338 9.65594 20.4186C10.5665 20.8034 11.5451 21.0011 12.5336 21C14.196 21.0025 15.8103 20.442 17.1136 19.41L15.6836 18C14.763 18.6525 13.662 19.0021 12.5336 19Z" fill="#20C752"/>
<path d="M12.5336 5.43002L16.4136 9.43002C17.0645 10.1009 17.5408 10.9213 17.8006 11.8193C18.0604 12.7172 18.0957 13.6652 17.9036 14.58L19.5336 16.15C20.0599 14.772 20.1805 13.2721 19.881 11.8278C19.5815 10.3834 18.8745 9.05508 17.8436 8.00002L13.2436 3.30002C13.151 3.20553 13.0405 3.13036 12.9186 3.07886C12.7968 3.02737 12.6659 3.00057 12.5336 3.00002C12.3996 2.99923 12.2668 3.02539 12.1431 3.07692C12.0194 3.12846 11.9074 3.20433 11.8136 3.30002L9.26358 5.90002L10.6836 7.32002L12.5336 5.43002Z" fill="#20C752"/>
<path d="M21.2436 19.29L5.24357 3.29C5.15033 3.19676 5.03964 3.1228 4.91782 3.07234C4.796 3.02188 4.66543 2.99591 4.53357 2.99591C4.40171 2.99591 4.27114 3.02188 4.14932 3.07234C4.0275 3.1228 3.91681 3.19676 3.82357 3.29C3.63527 3.47831 3.52948 3.7337 3.52948 4C3.52948 4.2663 3.63527 4.5217 3.82357 4.71L19.8236 20.71C19.9165 20.8037 20.0271 20.8781 20.149 20.9289C20.2709 20.9797 20.4016 21.0058 20.5336 21.0058C20.6656 21.0058 20.7963 20.9797 20.9181 20.9289C21.04 20.8781 21.1506 20.8037 21.2436 20.71C21.3373 20.617 21.4117 20.5064 21.4625 20.3846C21.5132 20.2627 21.5394 20.132 21.5394 20C21.5394 19.868 21.5132 19.7373 21.4625 19.6154C21.4117 19.4936 21.3373 19.383 21.2436 19.29Z" fill="#20C752"/>
</svg>
