<svg width="20" height="20" viewBox="0 0 20 20" fill="none" xmlns="http://www.w3.org/2000/svg">
<g clip-path="url(#clip0_159_2)">
<path d="M20 0H0V20H20V0Z" fill="white" fill-opacity="0.01"/>
<path d="M9.99999 18.3334C14.6024 18.3334 18.3333 14.6024 18.3333 10C18.3333 5.39765 14.6024 1.66669 9.99999 1.66669C5.39762 1.66669 1.66666 5.39765 1.66666 10C1.66666 14.6024 5.39762 18.3334 9.99999 18.3334Z" stroke="#20C752" stroke-width="2" stroke-linecap="round" stroke-linejoin="round"/>
<path d="M12.5388 2.70837L10.0291 4.52461V6.34085L13.2558 8.88359L15.0485 8.15709L16.124 5.25111" stroke="#20C752" stroke-width="2" stroke-linecap="round" stroke-linejoin="round"/>
<path d="M7.51938 2.70837L10.0291 4.52461V6.34085L6.80233 8.88359L5.00969 8.15709L3.93411 5.25111" stroke="#20C752" stroke-width="2" stroke-linecap="round" stroke-linejoin="round"/>
<path d="M2.5 9.24685L5.00969 8.1571L6.80233 8.8836L7.87791 12.8793L6.80233 14.3323H3.57558" stroke="#20C752" stroke-width="2" stroke-linecap="round" stroke-linejoin="round"/>
<path d="M6.80234 16.8751V14.3323L7.87792 12.8793H12.1802L13.2558 14.3323V16.8751" stroke="#20C752" stroke-width="2" stroke-linecap="round" stroke-linejoin="round"/>
<path d="M16.4826 14.3323H13.2558L12.1802 12.8793L13.2558 8.8836L15.0485 8.1571L17.9167 9.6101" stroke="#20C752" stroke-width="2" stroke-linecap="round" stroke-linejoin="round"/>
</g>
<defs>
<clipPath id="clip0_159_2">
<rect width="20" height="20" fill="white"/>
</clipPath>
</defs>
</svg>
