<svg width="20" height="20" viewBox="0 0 20 20" fill="none" xmlns="http://www.w3.org/2000/svg">
          <path fill-rule="evenodd" clip-rule="evenodd"
            d="M2.5 16.875V8.75H3.75V16.875C3.75 17.0408 3.81585 17.1997 3.93306 17.3169C4.05027 17.4342 4.20924 17.5 4.375 17.5H15.625C15.7908 17.5 15.9497 17.4342 16.0669 17.3169C16.1842 17.1997 16.25 17.0408 16.25 16.875V8.75H17.5V16.875C17.5 17.3723 17.3025 17.8492 16.9508 18.2008C16.5992 18.5525 16.1223 18.75 15.625 18.75H4.375C3.87772 18.75 3.40081 18.5525 3.04917 18.2008C2.69754 17.8492 2.5 17.3723 2.5 16.875ZM16.25 3.125V7.5L13.75 5V3.125C13.75 2.95924 13.8158 2.80027 13.9331 2.68306C14.0503 2.56585 14.2092 2.5 14.375 2.5H15.625C15.7908 2.5 15.9497 2.56585 16.0669 2.68306C16.1842 2.80027 16.25 2.95924 16.25 3.125Z"
            fill="#20C752" />
          <path fill-rule="evenodd" clip-rule="evenodd"
            d="M9.11631 1.87477C9.35072 1.64043 9.6686 1.50879 10.0001 1.50879C10.3315 1.50879 10.6494 1.64043 10.8838 1.87477L19.1926 10.1823C19.3099 10.2996 19.3758 10.4588 19.3758 10.6248C19.3758 10.7907 19.3099 10.9499 19.1926 11.0673C19.0752 11.1846 18.916 11.2506 18.7501 11.2506C18.5841 11.2506 18.4249 11.1846 18.3076 11.0673L10.0001 2.75852L1.69256 11.0673C1.5752 11.1846 1.41603 11.2506 1.25006 11.2506C1.08409 11.2506 0.924915 11.1846 0.807557 11.0673C0.690199 10.9499 0.624268 10.7907 0.624268 10.6248C0.624268 10.4588 0.690199 10.2996 0.807557 10.1823L9.11631 1.87477Z"
            fill="#20C752" />
        </svg>