<svg width="18" height="18" viewBox="0 0 18 18" fill="none" xmlns="http://www.w3.org/2000/svg">
          <g clip-path="url(#clip0_1024_2039)">
            <path
              d="M2.25 6.75021C2.24997 5.63558 2.52596 4.53828 3.05334 3.5563C3.58072 2.57432 4.34307 1.73822 5.27232 1.12267C6.20157 0.50711 7.2688 0.131253 8.3787 0.0286564C9.48861 -0.0739402 10.6066 0.0999171 11.633 0.534704C12.6593 0.969492 13.562 1.65168 14.2605 2.52034C14.9589 3.38901 15.4314 4.41712 15.6357 5.51288C15.84 6.60863 15.7697 7.73793 15.4312 8.79992C15.0927 9.86191 14.4965 10.8235 13.6958 11.599C13.4674 11.8195 13.2919 12.049 13.1861 12.2953L12.3289 14.2855C12.2854 14.3863 12.2133 14.4722 12.1215 14.5326C12.0298 14.593 11.9223 14.6252 11.8125 14.6252C11.9617 14.6252 12.1048 14.6845 12.2103 14.79C12.3157 14.8955 12.375 15.0385 12.375 15.1877C12.375 15.3369 12.3157 15.48 12.2103 15.5855C12.1048 15.691 11.9617 15.7502 11.8125 15.7502C11.9617 15.7502 12.1048 15.8095 12.2103 15.915C12.3157 16.0205 12.375 16.1635 12.375 16.3127C12.375 16.4619 12.3157 16.605 12.2103 16.7105C12.1048 16.816 11.9617 16.8752 11.8125 16.8752L11.5605 17.3781C11.4671 17.5649 11.3236 17.7221 11.146 17.832C10.9683 17.9418 10.7636 18.0001 10.5548 18.0002H7.44525C7.23638 18.0001 7.03167 17.9418 6.85404 17.832C6.6764 17.7221 6.53287 17.5649 6.4395 17.3781L6.1875 16.8752C6.03832 16.8752 5.89525 16.816 5.78976 16.7105C5.68427 16.605 5.625 16.4619 5.625 16.3127C5.625 16.1635 5.68427 16.0205 5.78976 15.915C5.89525 15.8095 6.03832 15.7502 6.1875 15.7502C6.03832 15.7502 5.89525 15.691 5.78976 15.5855C5.68427 15.48 5.625 15.3369 5.625 15.1877C5.625 15.0385 5.68427 14.8955 5.78976 14.79C5.89525 14.6845 6.03832 14.6252 6.1875 14.6252C6.07747 14.6254 5.96979 14.5933 5.87781 14.5329C5.78583 14.4725 5.71358 14.3865 5.67 14.2855L4.81388 12.2942C4.6913 12.0313 4.51813 11.795 4.30425 11.599C3.65358 10.9703 3.13631 10.2169 2.78336 9.38378C2.43041 8.55069 2.24901 7.65499 2.25 6.75021ZM9 1.12521C7.87969 1.12502 6.78483 1.45937 5.85576 2.08541C4.92668 2.71145 4.20571 3.60066 3.78524 4.63908C3.36478 5.6775 3.26397 6.81782 3.49574 7.9139C3.72751 9.00998 4.28129 10.0119 5.08613 10.7912C5.382 11.077 5.66438 11.4257 5.84663 11.8498L6.55875 13.5002H11.4435L12.1545 11.8498C12.3368 11.4257 12.6191 11.077 12.915 10.7912C13.7199 10.0118 14.2737 9.00981 14.5055 7.91363C14.7372 6.81744 14.6363 5.67703 14.2157 4.63856C13.7951 3.6001 13.0739 2.7109 12.1447 2.08494C11.2154 1.45899 10.1204 1.1248 9 1.12521Z"
              fill="#292929" />
          </g>
          <defs>
            <clipPath id="clip0_1024_2039">
              <rect width="18" height="18" fill="white" />
            </clipPath>
          </defs>
        </svg>