<svg width="18" height="18" viewBox="0 0 18 18" fill="none" xmlns="http://www.w3.org/2000/svg">
          <path
            d="M15.75 1.52295C16.0484 1.52295 16.3345 1.64148 16.5455 1.85245C16.7565 2.06343 16.875 2.34958 16.875 2.64795V11.6479C16.875 11.9463 16.7565 12.2325 16.5455 12.4434C16.3345 12.6544 16.0484 12.7729 15.75 12.7729H4.96575C4.36906 12.7731 3.79686 13.0102 3.375 13.4322L1.125 15.6822V2.64795C1.125 2.34958 1.24353 2.06343 1.4545 1.85245C1.66548 1.64148 1.95163 1.52295 2.25 1.52295H15.75ZM2.25 0.397949C1.65326 0.397949 1.08097 0.635002 0.65901 1.05696C0.237053 1.47892 0 2.05121 0 2.64795L0 17.0401C2.36417e-05 17.1514 0.0330667 17.2602 0.0949469 17.3527C0.156827 17.4452 0.244763 17.5173 0.347624 17.5598C0.450486 17.6023 0.563649 17.6134 0.672791 17.5915C0.781932 17.5697 0.882147 17.516 0.96075 17.4372L4.17037 14.2276C4.3813 14.0166 4.66741 13.898 4.96575 13.8979H15.75C16.3467 13.8979 16.919 13.6609 17.341 13.2389C17.7629 12.817 18 12.2447 18 11.6479V2.64795C18 2.05121 17.7629 1.47892 17.341 1.05696C16.919 0.635002 16.3467 0.397949 15.75 0.397949L2.25 0.397949Z"
            fill="#292929" />
        </svg>