<svg width="18" height="19" viewBox="0 0 18 19" fill="none" xmlns="http://www.w3.org/2000/svg">
<g clip-path="url(#clip0_757_719)">
<path d="M6.75 0.812659C6.85982 0.946098 6.92709 1.1094 6.94314 1.28147C6.95918 1.45354 6.92325 1.62647 6.84 1.77791C6.18959 2.97207 5.84993 4.31061 5.85225 5.67041C5.85225 10.194 9.54 13.857 14.085 13.857C14.6779 13.857 15.255 13.7952 15.8096 13.677C15.9796 13.6402 16.1567 13.6543 16.3188 13.7175C16.4809 13.7807 16.6207 13.8903 16.7209 14.0325C16.8266 14.1804 16.8805 14.3591 16.8742 14.5408C16.8679 14.7225 16.8017 14.897 16.686 15.0372C15.8036 16.121 14.6905 16.9943 13.4278 17.5934C12.1651 18.1924 10.7846 18.5021 9.387 18.4999C4.20075 18.4999 0 14.3217 0 9.17366C0 5.29916 2.37825 1.97591 5.7645 0.567409C5.93318 0.496119 6.12044 0.481488 6.29814 0.525711C6.47585 0.569935 6.63441 0.670626 6.75 0.812659ZM5.46525 1.97478C4.16318 2.67322 3.07467 3.71138 2.3154 4.97894C1.55613 6.2465 1.15448 7.69609 1.15313 9.17366C1.15313 13.6962 4.842 17.3592 9.387 17.3592C10.4754 17.361 11.5533 17.147 12.5584 16.7296C13.5636 16.3121 14.4759 15.6994 15.2426 14.9269C14.8635 14.9742 14.4776 14.9978 14.085 14.9978C8.89875 14.9978 4.69913 10.8195 4.69913 5.67153C4.69913 4.35866 4.97138 3.10878 5.46525 1.97478Z" fill="#F2478B"/>
<path d="M12.1432 4.04146C12.1593 3.99274 12.1904 3.95035 12.232 3.9203C12.2736 3.89025 12.3236 3.87408 12.3749 3.87408C12.4262 3.87408 12.4762 3.89025 12.5178 3.9203C12.5595 3.95035 12.5905 3.99274 12.6067 4.04146L13.042 5.34871C13.2367 5.93146 13.6934 6.38821 14.2762 6.58284L15.5834 7.01821C15.6321 7.03435 15.6745 7.06542 15.7046 7.10702C15.7346 7.14863 15.7508 7.19864 15.7508 7.24996C15.7508 7.30128 15.7346 7.3513 15.7046 7.3929C15.6745 7.4345 15.6321 7.46558 15.5834 7.48171L14.2762 7.91709C13.9887 8.01284 13.7276 8.17422 13.5134 8.38843C13.2992 8.60265 13.1378 8.8638 13.042 9.15121L12.6067 10.4585C12.5905 10.5072 12.5595 10.5496 12.5178 10.5796C12.4762 10.6097 12.4262 10.6258 12.3749 10.6258C12.3236 10.6258 12.2736 10.6097 12.232 10.5796C12.1904 10.5496 12.1593 10.5072 12.1432 10.4585L11.7078 9.15121C11.612 8.8638 11.4506 8.60265 11.2364 8.38843C11.0222 8.17422 10.7611 8.01284 10.4737 7.91709L9.16641 7.48171C9.11769 7.46558 9.07529 7.4345 9.04525 7.3929C9.0152 7.3513 8.99902 7.30128 8.99902 7.24996C8.99902 7.19864 9.0152 7.14863 9.04525 7.10702C9.07529 7.06542 9.11769 7.03435 9.16641 7.01821L10.4737 6.58284C10.7611 6.48708 11.0222 6.3257 11.2364 6.11149C11.4506 5.89728 11.612 5.63612 11.7078 5.34871L12.1432 4.04146ZM15.5958 0.611338C15.6069 0.579305 15.6277 0.551529 15.6553 0.53187C15.6829 0.512212 15.716 0.501648 15.7499 0.501648C15.7838 0.501648 15.8169 0.512212 15.8445 0.53187C15.8721 0.551529 15.8929 0.579305 15.904 0.611338L16.1943 1.48209C16.3237 1.87134 16.6285 2.17621 17.0178 2.30559L17.8885 2.59584C17.9206 2.60694 17.9483 2.62775 17.968 2.65538C17.9877 2.683 17.9982 2.71606 17.9982 2.74996C17.9982 2.78387 17.9877 2.81693 17.968 2.84455C17.9483 2.87217 17.9206 2.89298 17.8885 2.90409L17.0178 3.19434C16.826 3.25815 16.6517 3.36581 16.5087 3.50876C16.3658 3.65171 16.2581 3.82601 16.1943 4.01784L15.904 4.88859C15.8929 4.92062 15.8721 4.9484 15.8445 4.96806C15.8169 4.98771 15.7838 4.99828 15.7499 4.99828C15.716 4.99828 15.6829 4.98771 15.6553 4.96806C15.6277 4.9484 15.6069 4.92062 15.5958 4.88859L15.3055 4.01784C15.2417 3.82601 15.1341 3.65171 14.9911 3.50876C14.8482 3.36581 14.6739 3.25815 14.482 3.19434L13.6113 2.90409C13.5793 2.89298 13.5515 2.87217 13.5318 2.84455C13.5122 2.81693 13.5016 2.78387 13.5016 2.74996C13.5016 2.71606 13.5122 2.683 13.5318 2.65538C13.5515 2.62775 13.5793 2.60694 13.6113 2.59584L14.482 2.30559C14.8713 2.17621 15.1762 1.87134 15.3055 1.48209L15.5958 0.612463V0.611338Z" fill="#F2478B"/>
</g>
<defs>
<clipPath id="clip0_757_719">
<rect width="18" height="18" fill="white" transform="translate(0 0.5)"/>
</clipPath>
</defs>
</svg>
