<svg width="33" height="33" viewBox="0 0 33 33" fill="none" xmlns="http://www.w3.org/2000/svg">
            <path
              d="M16.5 3.5C9.33203 3.5 3.5 9.33203 3.5 16.5C3.5 23.668 9.33203 29.5 16.5 29.5C23.668 29.5 29.5 23.668 29.5 16.5C29.5 9.33203 23.668 3.5 16.5 3.5ZM16.5 5.5C17.1016 5.5 17.6758 5.5625 18.25 5.65625L16.5 6.90625L14.75 5.65625C15.3203 5.56641 15.9023 5.5 16.5 5.5ZM12.3125 6.34375L15.9062 8.96875L16.5 9.40625L17.0938 8.96875L20.6875 6.34375C22.2852 7.00781 23.6953 8.02344 24.8125 9.3125L23.4375 13.5938L23.2188 14.2812L23.8125 14.6875L27.4375 17.3438C27.3047 19.1055 26.7656 20.7578 25.9062 22.1875H20.625L20.4062 22.875L19 27.2188C18.1992 27.4062 17.3594 27.5 16.5 27.5C15.6055 27.5 14.7383 27.3867 13.9062 27.1875L12.5312 22.9062L12.3125 22.2188H7.09375C6.21875 20.7812 5.69922 19.1211 5.5625 17.3438L9.15625 14.7188L9.75 14.3125L9.53125 13.625L8.125 9.375C9.25 8.05469 10.6836 7.01562 12.3125 6.34375ZM16.5 10.5938L15.9062 11.0312L11.3438 14.3438L10.7812 14.7812L11 15.4688L12.75 20.8125L12.9688 21.5H20.0312L20.25 20.8125L22 15.4688L22.2188 14.7812L21.6562 14.3438L17.0938 11.0312L16.5 10.5938ZM26.25 11.4062C26.7969 12.4531 27.1562 13.6016 27.3438 14.8125L25.5625 13.5312L26.25 11.4062ZM6.71875 11.4688L7.40625 13.5312L5.65625 14.8125C5.83984 13.625 6.1875 12.5 6.71875 11.4688ZM16.5 13.0938L19.875 15.5312L18.5938 19.5H14.4062L13.125 15.5312L16.5 13.0938ZM22.0938 24.1875H24.3438C23.4922 25.0664 22.5117 25.793 21.4062 26.3438L22.0938 24.1875ZM8.65625 24.2188H10.8438L11.5312 26.3125C10.4609 25.7695 9.48828 25.0625 8.65625 24.2188Z"
              fill="black" />
          </svg>