<svg width="20" height="20" viewBox="0 0 20 20" fill="none" xmlns="http://www.w3.org/2000/svg">
<path d="M9.99984 1.66669C10.4601 1.66669 10.8332 2.03978 10.8332 2.50002V3.33335C10.8332 3.79359 10.4601 4.16669 9.99984 4.16669C9.5396 4.16669 9.1665 3.79359 9.1665 3.33335V2.50002C9.1665 2.03978 9.5396 1.66669 9.99984 1.66669ZM15.8924 4.10746C16.2179 4.43289 16.2179 4.96053 15.8924 5.28597L15.3032 5.87523C14.9777 6.20066 14.4501 6.20066 14.1247 5.87523C13.7992 5.54979 13.7992 5.02215 14.1247 4.69671L14.7139 4.10746C15.0394 3.78202 15.567 3.78202 15.8924 4.10746ZM4.10728 4.10746C4.43271 3.78202 4.96035 3.78202 5.28579 4.10746L5.87504 4.69671C6.20048 5.02215 6.20048 5.54979 5.87504 5.87523C5.54961 6.20066 5.02197 6.20066 4.69653 5.87523L4.10728 5.28597C3.78184 4.96053 3.78184 4.4329 4.10728 4.10746ZM9.99984 6.66669C8.15889 6.66669 6.6665 8.15907 6.6665 10C6.6665 11.841 8.15889 13.3334 9.99984 13.3334C11.8408 13.3334 13.3332 11.841 13.3332 10C13.3332 8.15907 11.8408 6.66669 9.99984 6.66669ZM4.99984 10C4.99984 7.2386 7.23841 5.00002 9.99984 5.00002C12.7613 5.00002 14.9998 7.2386 14.9998 10C14.9998 12.7614 12.7613 15 9.99984 15C7.23841 15 4.99984 12.7614 4.99984 10ZM1.6665 10C1.6665 9.53978 2.0396 9.16669 2.49984 9.16669H3.33317C3.79341 9.16669 4.1665 9.53978 4.1665 10C4.1665 10.4603 3.79341 10.8334 3.33317 10.8334H2.49984C2.0396 10.8334 1.6665 10.4603 1.6665 10ZM15.8332 10C15.8332 9.53978 16.2063 9.16669 16.6665 9.16669H17.4998C17.9601 9.16669 18.3332 9.53978 18.3332 10C18.3332 10.4603 17.9601 10.8334 17.4998 10.8334H16.6665C16.2063 10.8334 15.8332 10.4603 15.8332 10ZM4.69653 14.1248C5.02197 13.7994 5.54961 13.7994 5.87504 14.1248C6.20048 14.4502 6.20048 14.9779 5.87504 15.3033L5.28579 15.8926C4.96035 16.218 4.43271 16.218 4.10728 15.8926C3.78184 15.5671 3.78184 15.0395 4.10728 14.7141L4.69653 14.1248ZM14.1247 15.3033C13.7992 14.9779 13.7992 14.4502 14.1247 14.1248C14.4501 13.7994 14.9777 13.7994 15.3032 14.1248L15.8924 14.7141C16.2179 15.0395 16.2179 15.5671 15.8924 15.8926C15.567 16.218 15.0394 16.218 14.7139 15.8926L14.1247 15.3033ZM9.99984 15.8334C10.4601 15.8334 10.8332 16.2064 10.8332 16.6667V17.5C10.8332 17.9603 10.4601 18.3334 9.99984 18.3334C9.5396 18.3334 9.1665 17.9603 9.1665 17.5V16.6667C9.1665 16.2064 9.5396 15.8334 9.99984 15.8334Z" fill="#20C752"/>
</svg>
