<svg width="17" height="16" viewBox="0 0 17 16" fill="none" xmlns="http://www.w3.org/2000/svg">
                    <path
                        d="M3.1665 4.1196H13.8332M7.1665 11.1784V6.94313M9.83317 11.1784V6.94313M11.1665 14.002H5.83317C5.09679 14.002 4.49984 13.3699 4.49984 12.5902V4.82548C4.49984 4.43563 4.79831 4.1196 5.1665 4.1196H11.8332C12.2014 4.1196 12.4998 4.43563 12.4998 4.82548V12.5902C12.4998 13.3699 11.9029 14.002 11.1665 14.002ZM7.1665 4.1196H9.83317C10.2014 4.1196 10.4998 3.80357 10.4998 3.41372V2.70784C10.4998 2.31799 10.2014 2.00195 9.83317 2.00195H7.1665C6.79831 2.00195 6.49984 2.31799 6.49984 2.70784V3.41372C6.49984 3.80357 6.79831 4.1196 7.1665 4.1196Z"
                        stroke="black" stroke-linecap="round" stroke-linejoin="round" />
                </svg>