<svg width="50" height="50" viewBox="0 0 50 50" fill="none" xmlns="http://www.w3.org/2000/svg">
<g clip-path="url(#clip0_1602_6086)">
<rect width="50" height="50" rx="6" fill="white"/>
<path d="M4.36224 16.0854C4.52816 16.1523 3.94894 16.4564 3.14044 17.3901C2.76938 17.8189 2.73318 17.9375 2.40737 18.1048C1.64412 18.4972 0.262442 18.6462 0.0331672 18.4211C-0.193091 18.2021 0.724008 17.6577 1.2972 17.3201C2.48882 16.6146 4.10581 15.982 4.36224 16.0854Z" fill="#2F4798"/>
<path d="M20.2365 12.4669C22.7723 12.4669 24.828 10.3944 24.828 7.83794C24.828 5.28144 22.7723 3.20898 20.2365 3.20898C17.7007 3.20898 15.645 5.28144 15.645 7.83794C15.645 10.3944 17.7007 12.4669 20.2365 12.4669Z" stroke="#2F4798" stroke-width="0.5" stroke-miterlimit="10"/>
<path d="M26.7377 16.1408C24.6802 14.7266 23.9411 14.3464 23.7571 14.2795C23.742 14.2734 23.6515 14.2309 23.6274 14.167C23.5701 14.0028 23.9532 13.5222 24.0528 13.3975C24.5173 12.8258 24.7677 12.5064 26.252 10.7759C26.62 10.347 27.3893 9.49242 28.4874 8.4097C29.7695 7.14449 30.0049 6.90726 31.0607 6.02223C31.7093 5.47782 32.6747 4.77223 34.177 3.70167C35.1243 3.02649 35.8152 2.54899 36.5 2.08062C38.2376 0.882325 39.5982 -0.054415 39.6615 0.000329501C39.7098 0.0459499 38.9194 0.684636 38.301 1.21079C36.4849 2.75885 35.3988 3.99668 34.0262 5.5569C31.5525 8.3732 30.2764 10.49 29.6066 11.6548C28.3637 13.8172 27.8418 14.7479 27.4557 15.6786C27.4557 15.6786 27.2505 16.3537 27.0876 16.4389C27.0333 16.4663 27.0152 16.3994 26.8493 16.2382C26.8041 16.1956 26.7648 16.1621 26.7377 16.1378V16.1408Z" fill="#2F4798"/>
<path d="M19.9318 8.68927C19.7508 8.14182 19.4612 7.44839 18.9936 6.72759C18.2997 5.66007 17.5063 4.99097 16.9573 4.59863" stroke="#2F4798" stroke-width="0.5" stroke-miterlimit="10"/>
<path d="M22.4448 8.22407C22.2457 7.57931 21.929 6.76422 21.4101 5.91872C20.6408 4.66568 19.7599 3.88101 19.1445 3.4248" stroke="#2F4798" stroke-width="0.5" stroke-miterlimit="10"/>
<path d="M19.8262 8.61011C20.4356 8.59794 21.223 8.52495 22.0798 8.28772C23.3468 7.93797 24.2277 7.37836 24.7617 6.96777" stroke="#2F4798" stroke-width="0.5" stroke-miterlimit="10"/>
<path d="M19.3104 10.4901C19.968 10.5357 20.8097 10.5478 21.7117 10.4201C23.0481 10.2315 23.9441 9.82096 24.4811 9.51074" stroke="#2F4798" stroke-width="0.5" stroke-miterlimit="10"/>
<path d="M18.4747 6.11035C18.1489 6.69733 17.7718 7.46376 17.4882 8.33359C17.0689 9.62008 17.0297 10.5812 17.0659 11.1803" stroke="#2F4798" stroke-width="0.5" stroke-miterlimit="10"/>
<path d="M19.9318 8.60742C19.7357 8.98759 19.5185 9.50158 19.3797 10.1342C19.1746 11.0679 19.2319 11.8586 19.3103 12.3696" fill="white"/>
<path d="M19.9318 8.60742C19.7357 8.98759 19.5185 9.50158 19.3797 10.1342C19.1746 11.0679 19.2319 11.8586 19.3103 12.3696" stroke="#2F4798" stroke-width="0.5" stroke-miterlimit="10"/>
<path d="M2.2294 19.5408C2.01521 19.334 2.91421 18.1844 3.11935 17.8954C3.35767 17.5609 4.60662 16.1588 6.02752 15.1065C9.04127 12.8741 13.2829 12.7373 14.9934 12.8468C19.7961 13.1479 23.1387 15.1947 23.9803 15.7361C25.1116 16.4629 28.9821 19.0207 31.0124 24.0086C34.0202 31.4021 31.1603 38.9325 30.403 40.4502C29.2446 42.7707 26.3938 46.6728 21.1144 48.5615C15.8954 50.4289 11.3159 48.3851 10.5647 48.0353C9.39725 47.4909 5.33064 45.4015 3.66237 40.9459C2.51298 37.8741 2.8418 34.5864 3.27019 34.5134C3.58996 34.4587 3.79812 36.2136 5.09232 38.5828C5.96718 40.1795 7.40317 42.8072 10.3023 44.2275C10.8694 44.5074 14.3086 46.1923 17.7266 44.6229C20.499 43.3486 21.7027 40.8455 22.4026 39.1272C24.6139 33.7136 22.7706 28.4155 22.2849 27.0286C21.5367 24.8997 19.7629 19.851 14.7309 17.7008C10.5768 15.9246 7.74406 16.4508 5.81634 17.5122C4.98673 17.9684 3.84941 18.6771 2.90214 19.3036C2.52203 19.556 2.30482 19.6168 2.2294 19.5438V19.5408Z" fill="#5BB130"/>
<path d="M32.0713 23.8441C31.468 24.1269 33.1664 26.3897 33.2962 30.0758C33.4048 33.1689 32.3217 34.8417 33.1936 35.6872C33.9387 36.411 35.0187 35.4712 35.9811 36.0126C38.7957 37.5941 36.3401 49.2456 37.6705 49.9633C38.5182 50.4226 41.0493 46.5783 41.2544 41.414C41.3087 40.0546 41.4113 36.116 38.9496 31.4475C36.6689 27.1227 32.8738 23.47 32.0713 23.8471V23.8441Z" fill="#2F4798"/>
<path d="M44.6905 34.8239C44.5728 34.8056 44.4582 34.7843 44.3405 34.7539C44.4552 34.7813 44.5728 34.8026 44.6905 34.8239Z" fill="black"/>
<path d="M47.7797 26.2988C47.8702 26.3536 47.9576 26.4114 48.0451 26.4691C47.9607 26.4083 47.8702 26.3536 47.7797 26.2988Z" fill="black"/>
<path d="M46.1898 34.8145C46.0722 34.8357 45.9515 34.854 45.8339 34.8631C45.9545 34.8509 46.0722 34.8327 46.1898 34.8145Z" fill="black"/>
<path d="M48.2533 26.6279C48.3016 26.6675 48.3498 26.707 48.3981 26.7465C48.3498 26.707 48.3046 26.6675 48.2533 26.6279Z" fill="black"/>
<path d="M45.4115 34.8852C45.493 34.8852 45.5714 34.8761 45.6498 34.873C45.5503 34.8791 45.4537 34.8822 45.3542 34.8822C45.3723 34.8822 45.3934 34.8822 45.4115 34.8822V34.8852Z" fill="black"/>
<path d="M41.4263 32.5278C41.0734 31.8952 40.8652 31.1835 40.8381 30.4384L42.2499 29.1093L41.9693 27.2206C42.4611 26.6549 43.0795 26.22 43.7704 25.9493L45.4386 26.877L47.1944 25.9919C47.3543 26.0588 47.5081 26.1349 47.656 26.217C46.9923 25.8429 46.232 25.627 45.4175 25.627C42.8834 25.627 40.826 27.6981 40.826 30.2559C40.826 32.4031 42.2801 34.2036 44.247 34.7267L43.3782 32.8532L41.4354 32.5278H41.4263Z" fill="black"/>
<path d="M49.9789 30.73C49.9939 30.5749 50.003 30.4167 50.003 30.2585C50.003 29.115 49.5897 28.0688 48.9049 27.2598L48.5248 29.2427L49.9789 30.73Z" fill="black"/>
<path d="M46.2894 34.7996C47.5715 34.5502 48.6575 33.7595 49.3182 32.6768L47.2487 32.9353L46.2894 34.7996Z" fill="black"/>
<path d="M49.3182 32.6769H49.3394C49.5716 32.2907 49.7527 31.8649 49.8703 31.4057C49.9276 31.1836 49.9608 30.9586 49.9849 30.7366L49.9789 30.7305C49.9065 31.4391 49.6742 32.0991 49.3213 32.6769H49.3182Z" fill="black"/>
<path d="M46.2894 34.7998C46.2562 34.8059 46.223 34.8089 46.1898 34.815C46.223 34.8089 46.2562 34.8089 46.2894 34.7998Z" fill="black"/>
<path d="M48.9049 27.2481C48.8415 27.1751 48.7721 27.1051 48.7028 27.0352C48.7721 27.1081 48.8385 27.1811 48.9019 27.2572V27.2481H48.9049Z" fill="black"/>
<path d="M48.0421 26.4697C48.1145 26.5214 48.1839 26.5731 48.2533 26.6279C48.1839 26.5731 48.1145 26.5184 48.0421 26.4697Z" fill="black"/>
<path d="M47.6499 26.2197C47.6952 26.2441 47.7344 26.2714 47.7796 26.2988C47.7374 26.2714 47.6952 26.2441 47.6499 26.2197Z" fill="black"/>
<path d="M44.241 34.7295C44.2561 34.7325 44.2712 34.7386 44.2862 34.7447C44.3043 34.7508 44.3224 34.7508 44.3405 34.7569C44.3074 34.7477 44.2712 34.7386 44.238 34.7295H44.241Z" fill="black"/>
<path d="M44.247 32.1233H46.6393L47.5202 29.7541L45.4779 28.2334L43.4838 29.8088L44.247 32.1233Z" fill="black"/>
</g>
<defs>
<clipPath id="clip0_1602_6086">
<rect width="50" height="50" rx="6" fill="white"/>
</clipPath>
</defs>
</svg>
