<svg width="120" height="120" viewBox="0 0 120 120" fill="none" xmlns="http://www.w3.org/2000/svg">
<path d="M119.01 72.2004V119.917H59.9876C26.8926 119.917 0.0673828 93.0831 0.0673828 59.9964C0.0673828 26.9098 26.8926 0.0761719 59.9876 0.0761719C88.8944 0.0761719 113.025 20.5392 118.666 47.7841H93.9388C88.9364 33.8763 75.6245 23.9301 59.996 23.9301C40.0702 23.9301 23.9213 40.079 23.9213 60.0048C23.9213 79.9307 40.0702 96.0711 59.996 96.0711H95.6175V72.2172H119.018L119.01 72.2004Z" fill="#14A33F"/>
<path d="M119.077 119.983H59.9874C43.9645 119.983 28.8984 113.739 17.5673 102.407C6.23627 91.0764 0 76.0104 0 59.9874C0 43.9645 6.23627 28.8984 17.5673 17.5673C28.8984 6.23627 43.9645 0 59.9874 0C67.063 0 73.9959 1.21704 80.5847 3.62594C86.9469 5.9509 92.8391 9.32504 98.1017 13.656C108.652 22.3432 115.98 34.4548 118.733 47.7667L118.749 47.8506H93.8882L93.8714 47.8086C88.7515 33.5651 75.1374 23.9966 59.9958 23.9966C40.1455 23.9966 23.9882 40.1455 23.9882 60.0042C23.9882 79.8629 40.1371 96.0034 59.9958 96.0034H95.5501V72.1494H119.094V120L119.077 119.983ZM59.9874 0.134297C26.9847 0.134297 0.134297 26.9847 0.134297 59.9874C0.134297 92.9901 26.9847 119.841 59.9874 119.841H118.942V72.2669H95.676V96.1209H59.9874C40.0615 96.1209 23.8456 79.9133 23.8456 59.9874C23.8456 40.0616 40.0615 23.8456 59.9874 23.8456C67.575 23.8456 74.8353 26.1705 80.9876 30.5686C86.9973 34.8661 91.4877 40.7918 93.9806 47.6995H118.573C112.832 20.1273 88.2059 0.134297 59.9874 0.134297Z" fill="#14A33F"/>
<path d="M52.2974 61.3789L45.6666 64.9209L44.374 74.5985C46.2625 76.5038 48.5371 78.1237 50.988 79.2316C51.2818 79.3659 52.0624 79.7604 52.3225 79.6681L59.6751 74.3215L59.7003 66.6415L52.524 61.4628L52.2974 61.3957V61.3789Z" fill="#14A33F"/>
<path d="M70.1672 45.7847L69.1684 38.8854C69.0929 38.6504 68.1108 38.3146 67.8422 38.2139C65.341 37.2739 62.4453 36.8122 59.7846 36.8542C57.3673 36.8878 54.8409 37.3578 52.5831 38.1971C52.197 38.3398 51.3073 38.5916 51.1982 38.9693L50.1406 45.7679L55.5376 51.1397H64.8206L70.1672 45.7931V45.7847Z" fill="#14A33F"/>
<path d="M45.4322 63.9896L51.9791 60.456L54.7573 51.9954V51.6849L49.4275 46.3887L41.0845 47.7148C38.7595 51.5842 37.7523 56.083 38.0209 60.5986L45.0881 64.0399L45.4238 63.9896H45.4322Z" fill="#14A33F"/>
<path d="M67.994 61.3795L60.6582 66.6337L60.6834 74.3137L68.036 79.6603C68.2962 79.7526 69.0684 79.3581 69.3705 79.2238C71.8801 78.0991 74.1128 76.4456 76.0852 74.5403L74.7003 64.9131L68.0108 61.3711L67.994 61.3795Z" fill="#14A33F"/>
<path d="M60.1792 32.3887C45.4656 32.3887 33.5303 44.3156 33.5303 59.0376C33.5303 73.7596 45.4573 85.6866 60.1792 85.6866H86.8282V59.0376C86.8282 44.324 74.9012 32.3887 60.1792 32.3887ZM81.5739 69.7895C73.5163 85.8796 50.9717 87.5751 40.6143 72.8195C29.6777 57.2414 40.4716 35.83 59.3735 35.1585L60.7835 35.1333C78.1578 35.6285 89.4721 54.0184 81.5739 69.7811V69.7895Z" fill="#14A33F"/>
<path d="M65.568 51.8018L68.3797 60.4554L75.1532 64.0729L82.2792 60.6568C82.3547 60.5981 82.3463 60.5141 82.3547 60.4302C82.5226 59.0537 82.3211 56.8378 82.0945 55.4445C81.6665 52.7335 80.6592 50.1399 79.3079 47.7646L70.9229 46.3965L65.5596 51.8102L65.568 51.8018Z" fill="#14A33F"/>
</svg>
