<svg width="120" height="120" viewBox="0 0 120 120" fill="none" xmlns="http://www.w3.org/2000/svg">
<rect width="120" height="120" rx="16" fill="#5BB130"/>
<path d="M89 40.7212H30V57.8334H44.0558V89.9327C44.0558 100.471 52.2726 107.53 64.4594 107.946C68.0569 108.068 88.9438 107.946 88.9438 107.946V90.8333H68.6959C66.2774 90.8333 64.4594 88.7014 64.4594 85.4295V57.383H89V40.7212Z" fill="white"/>
<path d="M64.4594 21.3574C64.4594 15.6372 59.7904 11 54.0309 11C48.2714 11 43.6024 15.6372 43.6024 21.3574C43.6024 27.0776 48.2714 31.7148 54.0309 31.7148C59.7904 31.7148 64.4594 27.0776 64.4594 21.3574Z" fill="white"/>
</svg>
