<svg width="96" height="93" viewBox="0 0 96 93" fill="none" xmlns="http://www.w3.org/2000/svg">
<g clip-path="url(#clip0_360_132)">
<path d="M8.17811 29.9133C8.48918 30.0377 7.40328 30.6033 5.88755 32.3396C5.1919 33.137 5.12403 33.3576 4.51321 33.6687C3.08232 34.3983 0.492006 34.6754 0.0621723 34.2569C-0.362006 33.8497 1.35733 32.8373 2.43191 32.2095C4.66592 30.8974 7.69738 29.721 8.17811 29.9133Z" fill="#2F4798"/>
<path d="M37.9386 23.1828C42.6926 23.1828 46.5465 19.3288 46.5465 14.5748C46.5465 9.82072 42.6926 5.9668 37.9386 5.9668C33.1845 5.9668 29.3306 9.82072 29.3306 14.5748C29.3306 19.3288 33.1845 23.1828 37.9386 23.1828Z" stroke="#2F4798" stroke-width="2" stroke-miterlimit="10"/>
<path d="M50.1266 30.0152C46.2694 27.3853 44.8838 26.6783 44.5388 26.5539C44.5105 26.5426 44.3408 26.4634 44.2956 26.3446C44.1881 26.0392 44.9064 25.1456 45.093 24.9137C45.964 23.8505 46.4334 23.2566 49.216 20.0385C49.906 19.2411 51.3482 17.6518 53.4069 15.6384C55.8106 13.2856 56.2517 12.8445 58.2312 11.1986C59.4472 10.1863 61.257 8.87414 64.0736 6.88334C65.8495 5.62777 67.1446 4.73982 68.4285 3.86884C71.6862 1.64049 74.2369 -0.101464 74.3557 0.000338514C74.4461 0.0851741 72.9643 1.27287 71.8049 2.25131C68.4002 5.13007 66.3641 7.43194 63.7908 10.3333C59.1531 15.5705 56.7607 19.5069 55.5052 21.673C53.175 25.6942 52.1966 27.4249 51.4727 29.1555C51.4727 29.1555 51.0881 30.4111 50.7827 30.5694C50.6809 30.6203 50.6469 30.4959 50.3359 30.1962C50.251 30.117 50.1775 30.0548 50.1266 30.0095V30.0152Z" fill="#2F4798"/>
<path d="M37.3673 16.1577C37.028 15.1397 36.485 13.8502 35.6084 12.5098C34.3076 10.5246 32.8201 9.28037 31.7908 8.55078" stroke="#2F4798" stroke-width="2" stroke-miterlimit="10"/>
<path d="M42.0785 15.2938C41.7052 14.0948 41.1113 12.5791 40.1386 11.0068C38.6963 8.67667 37.0449 7.2175 35.8911 6.36914" stroke="#2F4798" stroke-width="2" stroke-miterlimit="10"/>
<path d="M37.1693 16.0111C38.3118 15.9885 39.7879 15.8528 41.3941 15.4116C43.7695 14.7612 45.421 13.7206 46.4221 12.957" stroke="#2F4798" stroke-width="2" stroke-miterlimit="10"/>
<path d="M36.2021 19.5067C37.4351 19.5915 39.013 19.6141 40.7041 19.3766C43.2096 19.0259 44.8893 18.2624 45.896 17.6855" stroke="#2F4798" stroke-width="2" stroke-miterlimit="10"/>
<path d="M34.6355 11.3633C34.0247 12.4548 33.3177 13.8801 32.7861 15.4976C32 17.89 31.9264 19.6772 31.9943 20.7913" stroke="#2F4798" stroke-width="2" stroke-miterlimit="10"/>
<path d="M37.3672 16.0059C36.9996 16.7128 36.5924 17.6686 36.3322 18.845C35.9477 20.5813 36.0551 22.0518 36.2022 23.002" fill="white"/>
<path d="M37.3672 16.0059C36.9996 16.7128 36.5924 17.6686 36.3322 18.845C35.9477 20.5813 36.0551 22.0518 36.2022 23.002" stroke="#2F4798" stroke-width="2" stroke-miterlimit="10"/>
<path d="M4.17955 36.3372C3.77799 35.9527 5.4634 33.8148 5.84798 33.2775C6.29478 32.6554 8.63625 30.0481 11.3001 28.0912C16.9501 23.9399 24.9021 23.6854 28.1089 23.889C37.1127 24.449 43.3793 28.2552 44.9572 29.262C47.0781 30.6137 54.3344 35.3701 58.1407 44.6455C63.7794 58.3945 58.4178 72.398 56.9982 75.2202C54.8264 79.5355 49.4818 86.7918 39.5843 90.304C29.7999 93.7766 21.2145 89.976 19.8063 89.3256C17.6175 88.3132 9.99362 84.4277 6.86601 76.1421C4.71119 70.4299 5.32766 64.316 6.13077 64.1803C6.73027 64.0785 7.12052 67.3418 9.54682 71.7476C11.187 74.7169 13.8791 79.6034 19.3142 82.2446C20.3775 82.765 26.825 85.8982 33.2329 82.9799C38.4305 80.6101 40.6871 75.9555 41.9993 72.76C46.1449 62.6928 42.6893 52.8406 41.7787 50.2616C40.3761 46.3026 37.0505 36.9141 27.6168 32.9155C19.8289 29.6126 14.5182 30.591 10.9042 32.5649C9.34887 33.4132 7.21667 34.731 5.44077 35.8961C4.72815 36.3655 4.32094 36.4786 4.17955 36.3429V36.3372Z" fill="#5BB130"/>
<path d="M60.1259 44.3411C58.9947 44.8671 62.1789 49.0749 62.4221 55.9296C62.6257 61.6815 60.5953 64.7921 62.2298 66.3644C63.6268 67.7105 65.6515 65.9629 67.4557 66.9696C72.7325 69.9106 68.1287 91.5776 70.6229 92.9123C72.2121 93.7663 76.9573 86.6175 77.3419 77.0141C77.4437 74.486 77.636 67.1619 73.0209 58.4804C68.7452 50.438 61.6303 43.6455 60.1259 44.3468V44.3411Z" fill="#2F4798"/>
<path d="M87.1092 69.9718C91.8633 69.9718 95.7172 66.1179 95.7172 61.3638C95.7172 56.6098 91.8633 52.7559 87.1092 52.7559C82.3551 52.7559 78.5012 56.6098 78.5012 61.3638C78.5012 66.1179 82.3551 69.9718 87.1092 69.9718Z" fill="black" stroke="#030102" stroke-miterlimit="10"/>
<path d="M95.4401 63.5018C95.5476 63.0889 95.6098 62.6704 95.655 62.2576L92.9177 59.4749L93.6303 55.7705C92.7763 54.7694 91.6791 53.9606 90.4122 53.4347L87.1206 55.0805L83.993 53.3555C82.6978 53.8588 81.5384 54.6676 80.6165 55.7196L81.1425 59.2318L78.4956 61.7033C78.5465 63.0833 78.9368 64.4124 79.5985 65.5888L83.2407 66.1939L84.8696 69.6778C84.8979 69.6835 84.9262 69.6948 84.9544 69.7061C86.227 70.0285 87.4995 70.0455 88.7098 69.8136L90.514 66.3466L94.4334 65.8602C94.8689 65.1476 95.2082 64.3558 95.4288 63.5018H95.4401Z" fill="#FDFBFB" stroke="#030102" stroke-miterlimit="10"/>
<path d="M84.7282 64.4858H89.2075L90.859 60.0857L87.03 57.2578L83.2916 60.1818L84.7282 64.4858Z" fill="#010101"/>
</g>
<defs>
<clipPath id="clip0_360_132">
<rect width="96" height="92.9798" fill="white"/>
</clipPath>
</defs>
</svg>
