<svg width="118" height="35" viewBox="0 0 118 35" fill="none" xmlns="http://www.w3.org/2000/svg">
<path d="M21.8253 18.5521C22.2073 18.681 22.6518 18.8726 23.1589 19.1269C24.0479 19.639 24.8085 20.3393 25.4473 21.2312C26.2112 22.5064 26.5899 24.0359 26.5899 25.8197C26.5899 31.941 22.9021 35 15.533 35H1.23943C0.85748 35 0.666504 34.8084 0.666504 34.4252V4.97168C0.666504 4.58849 0.85748 4.39689 1.23943 4.39689H16.3002C18.9706 4.39689 21.1273 5.13355 22.7802 6.59698C24.4299 8.06371 25.2596 10.0094 25.2596 12.4309C25.2596 13.8348 24.9402 15.0769 24.308 16.1605C23.6693 17.2473 22.8428 18.0434 21.8253 18.5521ZM15.3453 30.5998C17.5053 30.5998 19.0924 30.2496 20.1099 29.5493C21.124 28.849 21.6344 27.6366 21.6344 25.9155C21.6344 24.1944 21.124 22.9854 20.1099 22.2817C19.0924 21.5814 17.502 21.2312 15.3453 21.2312H6.38591C5.87554 21.2312 5.62201 21.4228 5.62201 21.806V30.0316C5.62201 30.4148 5.87554 30.6064 6.38591 30.6064H15.3453V30.5998ZM6.38591 8.79707C6.00396 8.79707 5.81298 8.98867 5.81298 9.37187V16.2563C5.81298 16.6395 6.00396 16.8311 6.38591 16.8311H15.1543C18.4569 16.8311 20.1099 15.4932 20.1099 12.8141C20.1099 10.135 18.4569 8.79707 15.1543 8.79707H6.38591ZM52.7108 18.5521C53.0927 18.681 53.4747 18.8726 53.8534 19.1269C54.8675 19.639 55.6314 20.3393 56.1418 21.2312C57.0308 22.5064 57.4753 24.0359 57.4753 25.8197C57.4753 31.941 53.7875 35 46.4185 35H32.1216C31.7396 35 31.5487 34.8084 31.5487 34.4252V4.97168C31.5487 4.58849 31.7396 4.39689 32.1216 4.39689H47.1824C49.7243 4.39689 51.8514 5.13355 53.5702 6.59698C55.2857 8.06371 56.1451 10.0094 56.1451 12.4309C56.1451 13.8348 55.8257 15.0769 55.1935 16.1605C54.5514 17.2473 53.7249 18.0434 52.7108 18.5521ZM37.0771 8.79707C36.6951 8.79707 36.5042 8.98867 36.5042 9.37187V16.2563C36.5042 16.6395 36.6951 16.8311 37.0771 16.8311H46.0365C49.3391 16.8311 50.992 15.4932 50.992 12.8141C50.992 10.135 49.3391 8.79707 46.0365 8.79707H37.0771ZM46.2275 30.5998C48.3875 30.5998 49.9746 30.2496 50.992 29.5493C52.0062 28.849 52.5165 27.6366 52.5165 25.9155C52.5165 24.1944 52.0062 22.9854 50.992 22.2817C49.9746 21.5814 48.3842 21.2312 46.2275 21.2312H37.0771C36.6951 21.2312 36.5042 21.4228 36.5042 21.806V30.0316C36.5042 30.4148 36.6951 30.6064 37.0771 30.6064H46.2275V30.5998ZM84.7355 4.78008C84.8606 4.52572 84.9891 4.39689 85.1175 4.39689H90.073C90.1981 4.39689 90.3265 4.46295 90.4549 4.58848C90.58 4.71732 90.58 4.84615 90.4549 4.97168L74.6335 34.8084C74.5051 34.9372 74.3471 35 74.1561 35C73.9651 35 73.8038 34.9372 73.6787 34.8084L57.8573 4.97168C57.7289 4.84615 57.6959 4.71732 57.7618 4.58848C57.8243 4.46295 57.9824 4.39689 58.2392 4.39689H63.0038C63.2573 4.39689 63.4483 4.52572 63.5767 4.78008L73.6787 23.907C73.6787 24.0359 73.8038 24.0986 74.0606 24.0986C74.3141 24.0986 74.5051 24.0359 74.6335 23.907L84.7355 4.78008ZM90.4549 30.2199C90.3265 30.4776 90.1355 30.6031 89.882 30.6031H84.9265C84.7981 30.6031 84.7026 30.5403 84.64 30.4115C84.5742 30.286 84.5445 30.1571 84.5445 30.0283L100.369 0.1916C100.494 0.0660689 100.685 0 100.942 0C101.196 0 101.387 0.0660689 101.515 0.1916L117.333 30.0283C117.333 30.1571 117.3 30.286 117.238 30.4115C117.172 30.5403 117.076 30.6031 116.951 30.6031H111.996C111.739 30.6031 111.548 30.4776 111.423 30.2199L101.508 11.093C101.38 10.8386 101.189 10.7098 100.936 10.7098C100.679 10.7098 100.488 10.8386 100.363 11.093L90.4549 30.2199Z" fill="#004580"/>
</svg>
