<svg width="140" height="35" viewBox="0 0 140 35" fill="none" xmlns="http://www.w3.org/2000/svg">
<mask id="mask0_153_2268" style="mask-type:luminance" maskUnits="userSpaceOnUse" x="26" y="0" width="30" height="35">
<path d="M34.8665 27.532L36.77 19.291H39.3236C42.9218 19.291 45.9164 20.2892 45.8467 23.6553C45.7539 27.416 41.9003 28.9481 37.6986 28.9481H35.7718C34.6111 28.7624 34.8665 27.532 34.8665 27.532ZM53.9717 23.7946C54.2038 20.0571 51.3717 16.8071 47.6342 16.5053C51.2324 15.925 55.9448 13.2786 55.9448 8.45006C55.9448 3.29653 50.7449 0.534058 42.9218 0.534058C39.5557 0.534058 36.1665 0.789412 32.8236 1.34655L27.2058 26.1856C27.2058 26.1856 25.2791 32.6159 30.7808 33.9391C32.1968 34.3105 33.6825 34.5195 35.145 34.5427C49.7235 35.3552 53.9717 28.7856 53.9717 23.7946ZM39.695 6.26793C40.8093 6.12865 41.9235 6.08222 43.061 6.08222C45.986 6.08222 48.0753 7.12686 48.0288 9.51791C47.9592 12.4429 45.011 14.0679 40.7396 14.0679H39.0914C37.8843 14.0679 38.2325 12.675 38.2325 12.675L39.695 6.26793Z" fill="white"/>
</mask>
<g mask="url(#mask0_153_2268)">
<path d="M61.3992 -4.94464H21.4478V40.0675H61.3992V-4.94464Z" fill="#00498C"/>
</g>
<mask id="mask1_153_2268" style="mask-type:luminance" maskUnits="userSpaceOnUse" x="85" y="0" width="31" height="35">
<path d="M89.7461 34.6356C90.93 34.6356 93.1586 34.1713 93.9479 30.7588C94.5514 28.0428 95.5728 23.4696 95.5728 23.4696C96.3621 23.4696 97.4764 23.6785 98.7532 23.6785C111.289 23.6785 115.63 15.6232 115.63 10.1679C115.63 4.20192 111.474 0.766229 102.421 0.7198C99.0782 0.557302 95.7353 0.812658 92.4389 1.43944L85.0801 34.6356H89.7461ZM99.7978 6.50011C100.866 6.38404 101.957 6.3144 103.048 6.33761C105.973 6.33761 108.387 7.19653 108.387 10.7019C108.387 14.2072 105.671 17.6893 100.425 17.7357H99.4264C97.0585 17.7357 97.7317 15.7625 97.7317 15.7625L99.7978 6.50011Z" fill="white"/>
</mask>
<g mask="url(#mask1_153_2268)">
<path d="M121.084 -4.78156H79.647V40.0913H121.084V-4.78156Z" fill="#00498C"/>
</g>
<mask id="mask2_153_2268" style="mask-type:luminance" maskUnits="userSpaceOnUse" x="58" y="0" width="30" height="35">
<path d="M66.7147 19.9873C66.7147 14.6017 70.22 6.54637 78.2288 6.54637C80.3413 6.54637 84.0556 7.08029 86.2609 9.03028C86.2609 9.03028 87.0734 6.2678 87.3055 5.15352C87.5377 4.01603 87.1198 2.22855 83.6609 1.06785C81.5949 0.348209 79.4128 0 77.2306 0C64.695 0 58.1719 10.3071 58.1719 20.4052C58.1719 31.2462 65.4611 34.9836 72.8664 34.9836C74.9557 35.0765 77.0449 34.7747 79.0181 34.0783C80.202 33.6836 81.1074 32.7086 81.4324 31.5015L82.6627 25.9301C80.5038 27.6944 77.7878 28.6462 75.0253 28.5997C69.8021 28.5997 66.7611 25.2337 66.7611 20.0105" fill="white"/>
</mask>
<g mask="url(#mask2_153_2268)">
<path d="M92.8068 -5.47858H52.7393V40.3924H92.8068V-5.47858Z" fill="#00498C"/>
</g>
<mask id="mask3_153_2268" style="mask-type:luminance" maskUnits="userSpaceOnUse" x="4" y="2" width="11" height="14">
<path d="M12.2052 3.11056C9.3499 1.76414 6.16957 5.57125 5.98386 5.78018C5.24101 6.73196 4.61423 7.77659 4.10352 8.89087L5.7285 9.72657C8.72312 11.1891 11.4392 13.2087 13.6909 15.6694C15.6177 10.9105 15.3159 4.50341 12.2052 3.11056Z" fill="white"/>
</mask>
<g mask="url(#mask3_153_2268)">
<path d="M20.3528 -2.62317H-1.3291V21.1016H20.3528V-2.62317Z" fill="#00498C"/>
</g>
<mask id="mask4_153_2268" style="mask-type:luminance" maskUnits="userSpaceOnUse" x="0" y="3" width="25" height="30">
<path d="M23.3279 20.498C20.31 25.3497 12.0458 30.8515 9.72441 31.664C6.93872 32.8479 3.71197 32.0354 1.83163 29.6675C1.25128 29.0175 0.786994 28.3211 0.369141 27.5551C18.894 19.1748 15.7601 4.75884 12.2547 3.13385C14.4833 4.29455 16.5494 5.71061 18.4297 7.35881C20.0315 8.77487 21.4939 10.3302 22.7939 12.0016C24.7671 14.4159 24.9761 17.8516 23.3279 20.498Z" fill="white"/>
</mask>
<g mask="url(#mask4_153_2268)">
<path d="M29.9441 -2.32117H-5.08594V37.6767H29.9441V-2.32117Z" fill="#FF7800"/>
</g>
<mask id="mask5_153_2268" style="mask-type:luminance" maskUnits="userSpaceOnUse" x="119" y="2" width="12" height="14">
<path d="M128.929 15.6701C130.879 10.9112 130.554 4.52733 127.467 3.13449C124.612 1.78807 121.385 5.59518 121.269 5.80411C120.526 6.75588 119.876 7.80051 119.365 8.91479L120.99 9.7505C124.008 11.1898 126.701 13.2094 128.929 15.6701Z" fill="white"/>
</mask>
<g mask="url(#mask5_153_2268)">
<path d="M135.591 -2.62274H113.909V21.102H135.591V-2.62274Z" fill="#00498C"/>
</g>
<mask id="mask6_153_2268" style="mask-type:luminance" maskUnits="userSpaceOnUse" x="115" y="3" width="25" height="30">
<path d="M124.963 31.6639C122.177 32.8246 118.973 32.0121 117.07 29.6675C116.513 29.0175 116.025 28.3211 115.607 27.555C134.132 19.1747 130.975 4.75877 127.47 3.13379C129.698 4.29449 131.764 5.71055 133.645 7.35875C135.247 8.77481 136.709 10.3302 138.009 12.0016C139.982 14.439 140.168 17.8515 138.497 20.4979C135.548 25.3264 127.307 30.8514 124.963 31.6639Z" fill="white"/>
</mask>
<g mask="url(#mask6_153_2268)">
<path d="M145.182 -2.32141H110.152V37.6764H145.182V-2.32141Z" fill="#FF7800"/>
</g>
</svg>
