<svg width="194" height="35" viewBox="0 0 194 35" fill="none" xmlns="http://www.w3.org/2000/svg">
<g clip-path="url(#clip0_153_2309)">
<path d="M95.5172 10.1911C89.9981 10.1911 86.1155 14.17 86.0835 20.5875C86.0835 26.4595 90.7682 30.0854 95.5493 30.0854C98.4051 30.0854 100.17 29.6362 101.197 28.8019V25.5611C99.7128 26.2202 98.1033 26.5487 96.4798 26.5237C93.5278 26.5237 91.1533 24.9193 90.7682 22.3523L90.7361 22.1277H94.1695C97.4104 22.1277 99.6886 21.8389 101.133 21.133C102.576 20.4271 103.186 19.3361 103.186 17.6033C103.186 13.0148 99.4961 10.1911 95.5172 10.1911ZM97.7633 18.6301C96.8649 18.951 95.453 19.0794 93.1106 19.0794H90.7041V18.8548L90.7361 18.213C90.8324 15.9027 92.5651 13.8491 95.068 13.8491C96.0669 13.8017 97.0552 14.0712 97.8917 14.6192C98.2486 14.893 98.5342 15.2489 98.7241 15.6567C98.9141 16.0645 99.0028 16.5122 98.9827 16.9616C99.0147 17.7317 98.6618 18.3093 97.7633 18.6301ZM105.561 17.6033V29.7645H110.085V18.5018C110.085 16.9937 110.374 15.9027 111.016 15.1647C111.657 14.4267 112.556 14.1379 113.679 14.1379C114.087 14.1341 114.495 14.1664 114.898 14.2342V10.6403C114.187 10.3032 113.407 10.1383 112.62 10.159C107.55 10.1911 105.561 13.7849 105.561 17.6033ZM50.6588 29.7645V5.28172H46.1665V29.7645H50.6588ZM62.82 10.1911C56.7875 10.1911 54.1884 14.2983 54.1563 18.3414V29.7645H58.6486V18.6622C58.5997 17.4553 58.9616 16.2675 59.6754 15.293C60.0103 14.8992 60.429 14.5853 60.901 14.3744C61.3729 14.1634 61.886 14.0607 62.4028 14.0737C63.6863 14.0737 64.7452 14.4588 65.4832 15.261C66.2212 16.0631 66.5742 17.3466 66.5742 19.0152V29.7645H71.0665V18.5981C71.0665 13.1753 67.3443 10.1911 62.82 10.1911ZM78.9921 5.28172H74.5319V22.962C74.564 27.4542 76.8101 30.0854 81.6875 30.1175C83.7732 30.1175 84.9925 29.4437 85.5059 28.3527V25.5611C84.7037 25.914 83.6127 26.0745 82.265 26.0745C81.2382 26.0745 80.404 25.8178 79.8264 25.2081C79.2488 24.5984 78.96 23.6679 78.96 22.3523V14.0737H82.8747C84.7999 14.0737 85.6021 12.8544 85.6021 11.9559V10.159H78.9921V5.28172ZM164.185 10.1911C158.152 10.1911 155.553 14.2983 155.521 18.3414L155.553 29.7645H160.013V18.6622C160.013 17.2183 160.398 16.0952 161.04 15.293C161.375 14.8992 161.794 14.5853 162.266 14.3744C162.738 14.1634 163.251 14.0607 163.767 14.0737C165.051 14.0737 166.11 14.4588 166.848 15.293C167.586 16.1273 167.939 17.3466 167.939 19.0152V29.7645H172.399V18.5981C172.431 13.1753 168.741 10.1911 164.185 10.1911ZM126.803 10.1911C124.268 10.1911 122.695 11.6992 121.765 13.079L121.412 13.5924V5.28172H116.952V20.4591C116.952 26.9087 120.834 30.1175 125.872 30.1175C131.616 30.1175 135.242 25.5932 135.242 19.8174C135.242 14.1379 131.584 10.1911 126.803 10.1911ZM126.385 26.2991C124.909 26.2991 123.594 25.8819 122.727 24.791C121.861 23.7 121.444 22.0314 121.444 19.7532C121.444 16.6407 123.337 14.1058 125.904 14.0737C127.412 14.0737 128.632 14.4909 129.466 15.5497C130.3 16.6086 130.717 18.213 130.717 20.6196C130.685 23.8604 128.92 26.2991 126.385 26.2991ZM144.451 10.1911C141.723 10.1911 139.926 10.9291 138.675 11.8918V15.0363C140.248 14.2889 141.972 13.9155 143.713 13.9454C145.189 13.9454 146.472 14.17 147.21 14.7476C147.948 15.3251 148.301 16.3198 148.301 17.7317V18.1809H146.376C139.188 18.213 136.814 20.7479 136.814 24.1171C136.814 27.5826 139.894 30.1175 144.483 30.1175H145.478C149.745 30.1175 152.697 27.358 152.697 23.3149V18.8227C152.729 11.988 148.783 10.2232 144.451 10.1911ZM148.365 23.347C148.365 24.3738 148.109 25.176 147.531 25.7536C146.954 26.3312 146.119 26.5558 145.028 26.5558C144.103 26.6033 143.186 26.3683 142.397 25.8819C142.085 25.6631 141.833 25.3689 141.665 25.0268C141.496 24.6846 141.417 24.3055 141.435 23.9246C141.406 23.5189 141.494 23.1135 141.687 22.7556C141.88 22.3978 142.171 22.1021 142.526 21.9031C143.296 21.4539 144.547 21.2613 146.408 21.2613H148.365V23.347ZM185.234 19.6249L185.138 19.4965L185.234 19.3682C187.191 16.8974 191.459 12.0843 193.031 10.6403H190.561C188.988 10.6403 187.929 10.8008 186.806 11.8597C184.56 13.9775 182.699 16.4803 180.806 18.9189L180.453 19.4003L180.485 5.28172H175.961V29.7325H180.485V19.8174L180.838 20.2987C182.988 23.1545 185.17 26.0424 187.673 28.6094C188.51 29.3968 189.605 29.853 190.753 29.8929C192.005 29.8929 192.71 29.572 193.192 28.9944C191.908 27.4863 186.774 21.4859 185.234 19.6249Z" fill="#00A24F"/>
<path d="M5.28698 0.0193534C4.05006 0.0278256 2.8667 0.525138 1.99506 1.40279C1.12342 2.28044 0.634248 3.4672 0.634277 4.70414L0.634277 34.9948H30.957C32.199 34.9931 33.3896 34.499 34.2678 33.6208C35.146 32.7426 35.6401 31.552 35.6418 30.31V0.0193534H5.28698ZM27.4595 25.2723L8.81661 28.6415V9.83815L27.4595 6.46896V25.2723Z" fill="#0060A9"/>
</g>
<defs>
<clipPath id="clip0_153_2309">
<rect width="192.731" height="35" fill="white" transform="translate(0.634277)"/>
</clipPath>
</defs>
</svg>
