<?xml version="1.0" encoding="UTF-8"?>
<svg id="Capa_1" data-name="Capa 1" xmlns="http://www.w3.org/2000/svg" viewBox="0 0 169.74 164.4">
  <defs>
    <style>
      .cls-1 {
        fill: #fdfbfb;
      }

      .cls-1, .cls-2 {
        stroke: #030102;
      }

      .cls-1, .cls-2, .cls-3, .cls-4 {
        stroke-miterlimit: 10;
      }

      .cls-5 {
        fill: #5bb130;
      }

      .cls-6 {
        fill: #2f4798;
      }

      .cls-3 {
        fill: none;
      }

      .cls-3, .cls-4 {
        stroke: #2f4798;
        stroke-width: 2px;
      }

      .cls-4 {
        fill: #fff;
      }

      .cls-7 {
        fill: #010101;
      }
    </style>
  </defs>
  <path class="cls-6" d="m14.46,52.89c.55.22-1.37,1.22-4.05,4.29-1.23,1.41-1.35,1.8-2.43,2.35-2.53,1.29-7.11,1.78-7.87,1.04-.75-.72,2.29-2.51,4.19-3.62,3.95-2.32,9.31-4.4,10.16-4.06Z"/>
  <circle class="cls-3" cx="67.08" cy="25.77" r="15.22"/>
  <path class="cls-6" d="m88.63,53.07c-6.82-4.65-9.27-5.9-9.88-6.12-.05-.02-.35-.16-.43-.37-.19-.54,1.08-2.12,1.41-2.53,1.54-1.88,2.37-2.93,7.29-8.62,1.22-1.41,3.77-4.22,7.41-7.78,4.25-4.16,5.03-4.94,8.53-7.85,2.15-1.79,5.35-4.11,10.33-7.63,3.14-2.22,5.43-3.79,7.7-5.33C126.75,2.9,131.26-.18,131.47,0c.16.15-2.46,2.25-4.51,3.98-6.02,5.09-9.62,9.16-14.17,14.29-8.2,9.26-12.43,16.22-14.65,20.05-4.12,7.11-5.85,10.17-7.13,13.23,0,0-.68,2.22-1.22,2.5-.18.09-.24-.13-.79-.66-.15-.14-.28-.25-.37-.33Z"/>
  <path class="cls-3" d="m66.07,28.57c-.6-1.8-1.56-4.08-3.11-6.45-2.3-3.51-4.93-5.71-6.75-7"/>
  <path class="cls-3" d="m74.4,27.04c-.66-2.12-1.71-4.8-3.43-7.58-2.55-4.12-5.47-6.7-7.51-8.2"/>
  <path class="cls-3" d="m65.72,28.31c2.02-.04,4.63-.28,7.47-1.06,4.2-1.15,7.12-2.99,8.89-4.34"/>
  <path class="cls-3" d="m64.01,34.49c2.18.15,4.97.19,7.96-.23,4.43-.62,7.4-1.97,9.18-2.99"/>
  <path class="cls-3" d="m61.24,20.09c-1.08,1.93-2.33,4.45-3.27,7.31-1.39,4.23-1.52,7.39-1.4,9.36"/>
  <path class="cls-4" d="m66.07,28.3c-.65,1.25-1.37,2.94-1.83,5.02-.68,3.07-.49,5.67-.23,7.35"/>
  <path class="cls-5" d="m7.39,64.25c-.71-.68,2.27-4.46,2.95-5.41.79-1.1,4.93-5.71,9.64-9.17,9.99-7.34,24.05-7.79,29.72-7.43,15.92.99,27,7.72,29.79,9.5,3.75,2.39,16.58,10.8,23.31,27.2,9.97,24.31.49,49.07-2.02,54.06-3.84,7.63-13.29,20.46-30.79,26.67-17.3,6.14-32.48-.58-34.97-1.73-3.87-1.79-17.35-8.66-22.88-23.31-3.81-10.1-2.72-20.91-1.3-21.15,1.06-.18,1.75,5.59,6.04,13.38,2.9,5.25,7.66,13.89,17.27,18.56,1.88.92,13.28,6.46,24.61,1.3,9.19-4.19,13.18-12.42,15.5-18.07,7.33-17.8,1.22-35.22-.39-39.78-2.48-7-8.36-23.6-25.04-30.67-13.77-5.84-23.16-4.11-29.55-.62-2.75,1.5-6.52,3.83-9.66,5.89-1.26.83-1.98,1.03-2.23.79Z"/>
  <path class="cls-6" d="m106.31,78.4c-2,.93,3.63,8.37,4.06,20.49.36,10.17-3.23,15.67-.34,18.45,2.47,2.38,6.05-.71,9.24,1.07,9.33,5.2,1.19,43.51,5.6,45.87,2.81,1.51,11.2-11.13,11.88-28.11.18-4.47.52-17.42-7.64-32.77-7.56-14.22-20.14-26.23-22.8-24.99Z"/>
  <circle class="cls-2" cx="154.02" cy="108.5" r="15.22"/>
  <path class="cls-1" d="m168.75,112.28c.19-.73.3-1.47.38-2.2l-4.84-4.92,1.26-6.55c-1.51-1.77-3.45-3.2-5.69-4.13l-5.82,2.91-5.53-3.05c-2.29.89-4.34,2.32-5.97,4.18l.93,6.21-4.68,4.37c.09,2.44.78,4.79,1.95,6.87l6.44,1.07,2.88,6.16c.05.01.1.03.15.05,2.25.57,4.5.6,6.64.19l3.19-6.13,6.93-.86c.77-1.26,1.37-2.66,1.76-4.17Z"/>
  <polygon class="cls-7" points="149.81 114.02 157.73 114.02 160.65 106.24 153.88 101.24 147.27 106.41 149.81 114.02"/>
</svg>