<svg width="282" height="90" viewBox="0 0 282 90" fill="none" xmlns="http://www.w3.org/2000/svg">
<path d="M136.999 58.2604C136.642 58.433 136.526 58.4879 136.06 58.5428C135.594 58.5977 135.113 58.6448 134.632 58.6448C133.569 58.6448 132.754 58.4879 132.203 58.1663C131.66 57.8525 131.272 57.4525 131.016 56.9348C130.752 56.4014 130.597 55.7661 130.55 55.0444C130.504 54.2679 130.481 53.4443 130.481 52.605V40H123V52.605C123 56.8015 123.784 59.9155 125.32 61.8686C127.012 64.0884 128.385 64.8335 133.872 64.9826C135.385 65.0218 138 64.9826 138 64.9826V57.3662C138 57.3662 137.379 58.0879 136.991 58.2761L136.999 58.2604Z" fill="#14A33F"/>
<path d="M147 40H140V65H147V40Z" fill="#14A33F"/>
<path d="M190.818 44.5639L190.747 44.0498H169.998L173.638 51.3396L173.662 51.3863H182.331C182.07 52.1729 181.723 52.905 181.305 53.567C180.744 54.447 180.081 55.2181 179.331 55.8723C178.596 56.5109 177.736 57.0171 176.788 57.3676C175.841 57.7181 174.815 57.8972 173.749 57.8972C172.406 57.8972 171.143 57.6246 169.983 57.0794C168.814 56.5343 167.78 55.7866 166.911 54.852C166.043 53.9174 165.34 52.8037 164.827 51.5421C164.314 50.2804 164.053 48.9174 164.053 47.4922C164.053 46.067 164.314 44.704 164.827 43.4424C165.34 42.1807 166.043 41.067 166.911 40.1324C167.78 39.2056 168.814 38.4502 169.983 37.905C171.143 37.3598 172.406 37.0872 173.749 37.0872C175.565 37.0872 177.238 37.5701 178.707 38.528C180.191 39.486 181.352 40.7866 182.157 42.3832L182.457 42.9751L189.129 38.7539L188.805 38.2555C187.226 35.7944 185.102 33.7773 182.497 32.2741C179.875 30.7632 176.931 30 173.741 30C171.309 30 168.98 30.4595 166.824 31.3707C164.669 32.2819 162.774 33.5358 161.179 35.109C159.584 36.6822 158.305 38.5592 157.39 40.6776C156.466 42.8037 156 45.1012 156 47.5C156 49.8988 156.466 52.1963 157.39 54.3224C158.305 56.4486 159.584 58.3178 161.179 59.891C162.774 61.4642 164.677 62.7259 166.824 63.6293C168.98 64.5405 171.309 65 173.741 65C176.173 65 178.478 64.5405 180.586 63.6293C182.694 62.7181 184.542 61.4564 186.073 59.8832C187.605 58.31 188.821 56.433 189.689 54.3069C190.558 52.1807 191 49.891 191 47.4922C191 47.0171 190.984 46.5265 190.953 46.0358C190.921 45.5452 190.866 45.0545 190.803 44.5794L190.818 44.5639Z" fill="#14A33F"/>
<path d="M213 40.7934L212.329 40.3752C210.58 39.4584 208.748 39 206.879 39C204.21 39 202.016 39.8525 200.373 41.5333V39.386H193V65H200.373V51.0309C200.486 50.3474 200.712 49.6959 201.044 49.0928C201.391 48.4736 201.82 47.9267 202.318 47.4683C202.815 47.0179 203.381 46.656 204.014 46.4067C204.647 46.1574 205.333 46.0288 206.057 46.0288C207.082 46.0288 208.055 46.3022 208.952 46.833L209.479 47.3959L212.171 42.2651L213 40.7853V40.7934Z" fill="#14A33F"/>
<path d="M230.639 41.6372C229.947 40.9641 229.176 40.4097 228.336 39.9899C227.029 39.3326 225.496 39 223.776 39C222.057 39 220.368 39.3485 218.82 40.0375C217.279 40.7186 215.918 41.661 214.766 42.8331C213.614 44.0052 212.696 45.3911 212.019 46.9592C211.342 48.5352 211 50.2458 211 52.0515C211 53.8571 211.342 55.5203 212.019 57.0963C212.688 58.6643 213.614 60.0503 214.766 61.2224C215.918 62.3945 217.279 63.329 218.82 63.9942C220.368 64.6674 222.033 65 223.769 65C225.667 65 226.329 64.9446 227.348 64.5407L227.402 64.5248L227.309 57.3497L226.967 57.5556L226.858 57.611C226.251 57.9199 225.504 58.0783 224.624 58.0783C223.8 58.0783 223.022 57.9199 222.314 57.6031C221.598 57.2784 220.952 56.8349 220.392 56.2805C219.839 55.7262 219.396 55.0768 219.084 54.3482C218.773 53.6275 218.618 52.8514 218.618 52.0356C218.618 51.2199 218.773 50.3884 219.084 49.6518C219.396 48.9153 219.831 48.2659 220.384 47.7274C220.944 47.1809 221.598 46.7454 222.314 46.4207C223.022 46.1039 223.8 45.9455 224.624 45.9455C225.449 45.9455 226.196 46.1039 226.92 46.4048C227.651 46.7137 228.297 47.1493 228.857 47.6957C229.41 48.2501 229.853 48.8995 230.165 49.6202C230.476 50.3408 230.631 51.1328 230.631 51.9802V64.6199H238V39.396H230.631V41.6531L230.639 41.6372Z" fill="#14A33F"/>
<path d="M257.694 51.6713C256.999 51.1249 256.178 50.6576 255.253 50.2696C254.361 49.8973 253.374 49.5251 252.316 49.1687C252.213 49.1371 252.102 49.0975 251.976 49.0658C251.85 49.0262 251.731 49.0104 251.613 49.0024C251.178 48.8599 250.72 48.6936 250.262 48.5114C249.788 48.3293 249.354 48.1313 248.983 47.9412C248.635 47.7591 248.351 47.569 248.138 47.3631C247.964 47.2047 247.948 47.0859 247.948 47.0146C247.948 46.777 247.988 46.5949 248.059 46.4919C248.169 46.3494 248.296 46.2385 248.461 46.1514C248.635 46.0563 248.825 46.0009 249.03 45.9772C249.299 45.9455 249.536 45.9296 249.733 45.9296C250.862 45.9296 251.952 46.1355 252.955 46.5315C253.958 46.9275 254.811 47.474 255.483 48.1471L256.099 48.7648L259.471 42.6113V42.0174L259.21 41.8352C257.82 40.9086 256.304 40.1959 254.685 39.7207C253.074 39.2455 251.447 39 249.867 39C248.501 39 247.229 39.198 246.084 39.5861C244.931 39.9741 243.92 40.5443 243.099 41.2571C242.27 41.9857 241.622 42.8568 241.172 43.8626C240.722 44.8605 240.493 45.9772 240.493 47.1809V47.276C240.493 48.6619 240.769 49.8261 241.322 50.7289C241.859 51.6159 242.554 52.3524 243.391 52.9226C244.205 53.4849 245.129 53.9284 246.14 54.2452C247.095 54.5461 248.059 54.8313 248.999 55.0768C249.196 55.156 249.393 55.2035 249.575 55.2272C249.662 55.2352 249.765 55.2668 249.883 55.3064L249.923 55.3223C250.72 55.5678 251.415 55.8291 252 56.1063C252.497 56.3439 252.56 56.6132 252.56 56.8507C252.56 57.1834 252.56 58.0624 250.341 58.0624C249.054 58.0624 247.83 57.809 246.7 57.318C245.571 56.827 244.536 56.0825 243.628 55.1164L243.044 54.5382L239.426 60.272L239 60.7076L239.426 61.1352L239.537 61.2382C241.109 62.4341 242.822 63.3686 244.631 64.018C246.448 64.6674 248.319 65 250.199 65C253.24 65 255.648 64.2556 257.37 62.7904C259.115 61.3016 260 59.2187 260 56.6132V56.5656C260 55.4807 259.795 54.5224 259.384 53.7225C258.981 52.9306 258.405 52.2415 257.686 51.6713H257.694Z" fill="#14A33F"/>
<path d="M281.392 53.7225C280.989 52.9306 280.413 52.2336 279.694 51.6713C278.999 51.1249 278.178 50.6576 277.253 50.2696C276.361 49.8973 275.374 49.5251 274.316 49.1687C274.213 49.1371 274.102 49.0975 273.976 49.0658C273.85 49.0262 273.731 49.0104 273.613 49.0024C273.178 48.8599 272.728 48.6936 272.262 48.5114C271.78 48.3293 271.354 48.1313 270.983 47.9412C270.635 47.7591 270.351 47.569 270.138 47.3631C269.964 47.2047 269.948 47.0859 269.948 47.0146C269.948 46.777 269.988 46.5949 270.059 46.4919C270.169 46.3494 270.296 46.2385 270.461 46.1514C270.635 46.0563 270.825 46.0009 271.03 45.9772C271.307 45.9455 271.536 45.9296 271.733 45.9296C272.862 45.9296 273.952 46.1355 274.955 46.5315C275.958 46.9275 276.811 47.474 277.483 48.1471L278.099 48.7648L281.471 42.6113V42.0174L281.21 41.8352C279.828 40.9086 278.304 40.1959 276.685 39.7207C275.074 39.2455 273.447 39 271.867 39C270.501 39 269.229 39.198 268.084 39.5861C266.923 39.9741 265.92 40.5443 265.099 41.2571C264.27 41.9857 263.622 42.8568 263.172 43.8626C262.722 44.8605 262.493 45.9772 262.493 47.1809V47.276C262.493 48.6619 262.769 49.8261 263.322 50.7289C263.859 51.6159 264.554 52.3524 265.391 52.9226C266.205 53.4849 267.129 53.9284 268.14 54.2452C269.095 54.5461 270.059 54.8313 270.999 55.0768C271.196 55.156 271.393 55.2035 271.575 55.2272C271.662 55.2352 271.765 55.2668 271.883 55.3064L271.923 55.3223C272.72 55.5678 273.423 55.8291 274 56.1063C274.497 56.3439 274.56 56.6132 274.56 56.8507C274.56 57.1834 274.56 58.0624 272.341 58.0624C271.062 58.0624 269.838 57.809 268.7 57.318C267.571 56.827 266.536 56.0825 265.628 55.1164L265.044 54.5382L261.426 60.272L261 60.7076L261.426 61.1352L261.537 61.2382C263.109 62.4341 264.822 63.3686 266.631 64.018C268.448 64.6674 270.319 65 272.199 65C275.24 65 277.648 64.2556 279.37 62.7904C281.115 61.3016 282 59.2187 282 56.6132V56.5656C282 55.4807 281.795 54.5224 281.384 53.7225H281.392Z" fill="#14A33F"/>
<path d="M128 30H118.022H100V36.9792H109.986V65H118.022V36.9792H128V30Z" fill="#14A33F"/>
<path d="M89.1936 54.1641V89.9507H44.9583C20.1502 89.9507 0.0488281 69.8307 0.0488281 44.9998C0.0488281 20.1688 20.1502 0.0488281 44.9583 0.0488281C66.6286 0.0488281 84.7076 15.4087 88.9362 35.8354H70.4037C66.6531 25.4073 56.6759 17.936 44.9705 17.936C30.0416 17.936 17.9317 30.0447 17.9317 44.9998C17.9317 59.9548 30.0293 72.0513 44.9705 72.0513H71.6662V54.1519H89.2059L89.1936 54.1641Z" fill="#14A33F"/>
<path d="M89.2428 90H44.9585C32.9467 90 21.658 85.3135 13.164 76.8239C4.68215 68.322 0 57.0229 0 45C0 32.9771 4.68215 21.678 13.164 13.1761C21.658 4.68648 32.9467 0 44.9585 0C50.2657 0 55.4504 0.92012 60.39 2.72355C65.1579 4.46565 69.5704 6.99291 73.5172 10.244C81.4229 16.7585 86.914 25.8492 88.9854 35.8233V35.8847H70.3671V35.8479C66.5184 25.1622 56.3084 17.9853 44.9707 17.9853C30.0908 17.9853 17.9932 30.1063 17.9932 44.9877C17.9932 59.8691 30.1031 71.9902 44.9707 71.9902H71.6173V54.0908H89.2551V89.9877L89.2428 90ZM44.9585 0.0981461C20.224 0.0981461 0.0980556 20.2426 0.0980556 45C0.0980556 69.7574 20.224 89.9018 44.9585 89.9018H89.1448V54.2135H71.7031V72.1129H44.9585C30.0173 72.1129 17.8706 59.955 17.8706 45C17.8706 30.045 30.0173 17.8871 44.9585 17.8871C50.6457 17.8871 56.0878 19.6292 60.6964 22.9294C65.1947 26.1559 68.5654 30.5971 70.4284 35.7743H88.8629C84.5607 15.1022 66.1017 0.0981461 44.9585 0.0981461Z" fill="#14A33F"/>
<path d="M39.197 46.0547L34.2329 48.7169L33.2646 55.9797C34.6742 57.4028 36.3779 58.6297 38.2165 59.4516C38.4371 59.5498 39.0254 59.8442 39.2093 59.7829L44.7249 55.7712V50.0051L39.3686 46.116L39.197 46.067V46.0547Z" fill="#14A33F"/>
<path d="M52.5943 34.3495L51.8466 29.1723C51.7976 29.0005 51.0499 28.7429 50.8538 28.6693C48.9785 27.97 46.809 27.6142 44.8111 27.651C42.9971 27.6756 41.1095 28.0313 39.4181 28.657C39.1362 28.7674 38.462 28.9515 38.3762 29.2336L37.5918 34.3372L41.6366 38.3612H48.5985L52.6066 34.3495H52.5943Z" fill="#14A33F"/>
<path d="M34.0499 48.0053L38.9527 45.3554L41.0363 39.0127V38.7796L37.0406 34.8047L30.7895 35.7984C29.049 38.6937 28.2891 42.0798 28.4975 45.4658L33.7925 48.0544L34.0499 48.0176V48.0053Z" fill="#14A33F"/>
<path d="M50.9643 46.0547L45.4609 49.9928V55.7589L50.9888 59.7706C51.1849 59.8442 51.761 59.5498 51.9816 59.4394C53.8569 58.5929 55.5361 57.3538 57.007 55.9306L55.9651 48.7169L50.952 46.067L50.9643 46.0547Z" fill="#14A33F"/>
<path d="M45.1052 24.3027C34.074 24.3027 25.1387 33.2463 25.1387 44.2877C25.1387 55.3292 34.074 64.2727 45.1052 64.2727H65.0718V44.2877C65.0718 33.2463 56.1365 24.3027 45.1052 24.3027ZM61.1373 52.348C55.0946 64.42 38.2046 65.6959 30.4337 54.6176C22.2338 42.926 30.3234 26.8791 44.4924 26.3638L45.5465 26.3393C58.5634 26.7073 67.0452 40.5091 61.1251 52.3357L61.1373 52.348Z" fill="#14A33F"/>
<path d="M49.15 38.8655L51.2581 45.3554L56.3325 48.0667L61.6643 45.5026C61.6643 45.5026 61.7133 45.3922 61.7256 45.3309C61.8481 44.3003 61.7011 42.6318 61.5295 41.589C61.2108 39.5525 60.4509 37.6141 59.4458 35.823L53.158 34.8047L49.1377 38.8655H49.15Z" fill="#14A33F"/>
</svg>
