<svg width="169" height="35" viewBox="0 0 169 35" fill="none" xmlns="http://www.w3.org/2000/svg">
<g clip-path="url(#clip0_1251_3627)">
<path d="M13.6001 34.9305C16.0784 33.2651 18.4458 31.4672 20.5871 29.3875C22.8065 27.2292 24.6519 24.8098 25.815 21.9058C26.3041 20.6878 26.6411 19.4284 26.6535 18.1069C26.674 15.7165 25.5397 14.047 23.3244 13.2019C22.0831 12.7296 20.7844 12.5846 19.465 12.5597C19.3294 12.5556 19.2472 12.6094 19.1691 12.7172C16.9538 15.8615 13.9905 18.1483 10.7518 20.1119C7.40625 22.1336 3.83054 23.6581 0.135631 24.9175C0.115081 24.9258 0.0904204 24.9175 0 24.9175C0.143851 24.814 0.250711 24.7352 0.357572 24.6648C3.09895 22.8089 5.70882 20.7914 7.99399 18.3803C10.0695 16.1929 11.73 13.7446 12.6712 10.8488C13.111 9.49824 13.337 8.11457 13.0534 6.7019C12.663 4.75066 11.3806 3.61555 9.57223 2.99414C8.35156 2.57573 7.08156 2.47216 5.80335 2.44316C5.70882 2.43902 5.61429 2.43487 5.4951 2.43073C5.52798 2.38516 5.54442 2.35202 5.56908 2.33545C9.09958 0.508499 12.7657 0.00308491 16.588 1.25834C17.8991 1.68918 19.0582 2.39345 19.9665 3.45813C21.146 4.83766 21.405 6.44919 21.1255 8.18914C20.92 9.46925 20.4186 10.6416 19.7774 11.7602C19.7281 11.843 19.6829 11.9259 19.6377 12.0129C19.6295 12.0295 19.6377 12.0543 19.6377 12.0833C19.7815 12.1082 19.8843 12.0129 20.0035 11.9632C23.2093 10.5836 26.485 10.2357 29.8552 11.2838C30.9073 11.611 31.8732 12.1206 32.724 12.8373C34.3803 14.2293 34.9434 16.0313 34.6351 18.1317C34.3104 20.3439 33.2213 22.1957 31.8403 23.8901C29.7401 26.4711 27.1385 28.4471 24.319 30.1581C21.0433 32.1425 17.558 33.6628 13.9453 34.9015C13.8384 34.9388 13.7357 34.9968 13.6001 34.9305Z" fill="#BF0512"/>
<path d="M42.962 6.74341H44.7252C45.9582 6.74341 46.8994 7.07068 47.5529 7.72524C48.2064 8.37979 48.5311 9.27876 48.5311 10.418C48.5311 11.6733 47.9762 12.6261 46.8706 13.2765C48.527 13.9683 49.3572 15.265 49.3572 17.1665C49.3572 18.3679 48.9544 19.3456 48.153 20.0955C47.3515 20.8453 46.3076 21.2223 45.0252 21.2223H41.2933L42.962 6.74341ZM43.6813 14.1548L43.0524 19.6066H44.8691C45.7938 19.6066 46.5007 19.3871 46.9939 18.9521C47.4871 18.5171 47.7337 17.8957 47.7337 17.0878C47.7337 16.2676 47.4501 15.5716 46.883 15.004C46.3158 14.4365 45.6376 14.1548 44.8526 14.1548H43.6813ZM44.3512 8.40465L43.8703 12.5391H44.7334C45.3951 12.5391 45.9212 12.3402 46.3158 11.9425C46.7103 11.5448 46.9076 11.0229 46.9076 10.3724C46.9076 9.03849 46.2212 8.37151 44.8485 8.37151C44.6964 8.37151 44.5279 8.38393 44.3512 8.40465ZM57.4334 11.6898L56.3196 21.2223H54.8276L54.9756 20.1245L54.9386 20.0706C54.244 20.9613 53.533 21.4087 52.8055 21.4087C52.0821 21.4087 51.4697 21.04 50.9601 20.3067C50.4505 19.5735 50.1997 18.6828 50.1997 17.6388C50.1997 15.8284 50.6724 14.3371 51.6136 13.1605C52.5548 11.984 53.8741 11.3998 55.5633 11.3998C56.2538 11.3957 56.8785 11.4951 57.4334 11.6898ZM55.1523 18.4674L55.8017 12.9617C55.6414 12.9492 55.4852 12.9409 55.3373 12.9409C54.1618 12.9409 53.2699 13.3925 52.6534 14.2915C52.041 15.1946 51.7328 16.2013 51.7328 17.3115C51.7328 18.0779 51.8807 18.7035 52.1767 19.1923C52.4726 19.6812 52.8466 19.9215 53.2987 19.9215C53.6604 19.9215 54.0549 19.706 54.4865 19.2752C54.918 18.8485 55.14 18.5792 55.1523 18.4674ZM60.9803 11.6898L60.7789 13.3759L60.82 13.4091C61.6626 12.1663 62.538 11.5448 63.4422 11.5448C64.0546 11.5448 64.5314 11.8141 64.8684 12.3568C65.2054 12.8995 65.3739 13.5996 65.3739 14.4572C65.3739 14.6975 65.3575 14.9502 65.3205 15.2153L64.5684 21.2223H63.0929L63.8162 15.149C63.845 14.9336 63.8573 14.7389 63.8573 14.5566C63.8573 14.0595 63.771 13.6784 63.5984 13.4174C63.4258 13.1564 63.2121 13.0238 62.9531 13.0238C62.8052 13.0238 62.6367 13.0694 62.4476 13.1605C62.2626 13.2517 62.0613 13.3884 61.8475 13.5748C61.6338 13.7612 61.3708 14.0429 61.0584 14.424C60.7461 14.8052 60.5817 15.0455 60.5693 15.149L59.846 21.2223H58.3705L59.4802 11.6857H60.9803V11.6898ZM72.3938 19.0971L72.2212 20.837C71.5349 21.2927 70.7992 21.5206 70.0183 21.5206C68.9579 21.5206 68.1112 21.1229 67.4783 20.3233C66.8453 19.5238 66.5288 18.4591 66.5288 17.1251C66.5288 15.5136 67.0097 14.1589 67.9674 13.0528C68.9291 11.9467 70.1539 11.3957 71.6499 11.3957C72.0281 11.3957 72.4802 11.4496 73.0103 11.5614L72.8131 13.1564C72.4391 13.0528 72.0609 12.9989 71.6705 12.9989C70.6348 12.9989 69.7717 13.4008 69.0853 14.2003C68.3989 14.9999 68.0578 15.9361 68.0578 17.0091C68.0578 17.9081 68.2509 18.6124 68.6373 19.1302C69.0236 19.6439 69.5538 19.9008 70.2238 19.9008C70.9389 19.9049 71.6581 19.6356 72.3938 19.0971ZM77.3012 11.3957C78.189 11.3957 78.9 11.7727 79.4384 12.5308C79.9727 13.2889 80.244 14.2956 80.244 15.5509C80.244 17.2908 79.8823 18.7242 79.1589 19.8428C78.4356 20.9613 77.5478 21.5206 76.4915 21.5206C75.5627 21.5206 74.8352 21.1436 74.3091 20.3896C73.783 19.6356 73.52 18.5916 73.52 17.2494C73.52 15.584 73.8858 14.1921 74.6133 13.0735C75.3407 11.9591 76.2367 11.3957 77.3012 11.3957ZM77.3012 12.8167C76.6888 12.8167 76.1586 13.2765 75.7147 14.1879C75.2709 15.1035 75.0489 16.1847 75.0489 17.4358C75.0489 18.1815 75.1804 18.7905 75.4476 19.2586C75.7147 19.7268 76.0435 19.9629 76.4422 19.9629C77.0669 19.9629 77.6012 19.5362 78.0451 18.6786C78.489 17.8211 78.7109 16.744 78.7109 15.4432C78.7109 14.6436 78.5835 14.0015 78.3246 13.5251C78.0657 13.0487 77.7286 12.8167 77.3012 12.8167ZM94.0824 6.74341L92.3932 21.2223C91.8137 21.4211 91.1396 21.5247 90.3711 21.5247C89.0353 21.5247 88.0078 21.1394 87.2886 20.373C86.5693 19.6066 86.2076 18.5171 86.2076 17.1085C86.2076 15.7249 86.6762 14.4282 87.6132 13.2185C88.5503 12.0047 89.8203 11.3998 91.4232 11.3998H92.0521L92.5905 6.74755H94.0824V6.74341ZM91.0615 19.9877L91.8794 12.8995H91.4931C90.3711 12.8995 89.4669 13.3097 88.7805 14.1258C88.0941 14.946 87.7489 15.9237 87.7489 17.063C87.7489 18.0117 87.9749 18.7408 88.427 19.2545C88.8791 19.7682 89.5285 20.025 90.3711 20.025C90.6752 20.0292 90.9054 20.0167 91.0615 19.9877ZM100.769 18.7366L100.556 20.4559C99.7542 21.1684 98.8747 21.5247 97.9171 21.5247C96.9183 21.5247 96.1169 21.1063 95.5127 20.2653C94.9085 19.4243 94.6044 18.3099 94.6044 16.9138C94.6044 15.3603 94.9661 14.0512 95.6935 12.9907C96.4169 11.9301 97.3047 11.3998 98.3527 11.3998C99.1542 11.3998 99.8241 11.7727 100.354 12.5142C100.889 13.2558 101.156 14.2169 101.156 15.3893C101.156 15.6793 101.139 15.9776 101.102 16.28H96.1662C96.121 16.599 96.0963 16.9014 96.0963 17.1914C96.0963 18.0697 96.2936 18.7615 96.6923 19.2711C97.0909 19.7806 97.5924 20.0333 98.1924 20.0333C98.9322 20.0292 99.7871 19.5983 100.769 18.7366ZM96.3964 15.0247H99.709C99.709 14.3619 99.5857 13.8399 99.335 13.4546C99.0843 13.0694 98.735 12.8788 98.2829 12.8788C97.4239 12.8788 96.795 13.5955 96.3964 15.0247ZM110.128 6.74341L108.435 21.2223H106.943L108.636 6.74341H110.128ZM117.699 11.6898L116.585 21.2223H115.093L115.241 20.1245L115.204 20.0706C114.509 20.9613 113.798 21.4087 113.071 21.4087C112.347 21.4087 111.735 21.04 111.225 20.3067C110.716 19.5735 110.465 18.6828 110.465 17.6388C110.465 15.8284 110.938 14.3371 111.879 13.1605C112.82 11.984 114.139 11.3998 115.829 11.3998C116.523 11.3957 117.144 11.4951 117.699 11.6898ZM115.418 18.4674L116.067 12.9617C115.907 12.9492 115.75 12.9409 115.602 12.9409C114.427 12.9409 113.535 13.3925 112.919 14.2915C112.306 15.1946 111.998 16.2013 111.998 17.3115C111.998 18.0779 112.146 18.7035 112.442 19.1923C112.738 19.6812 113.112 19.9215 113.564 19.9215C113.926 19.9215 114.32 19.706 114.752 19.2752C115.183 18.8485 115.405 18.5792 115.418 18.4674ZM134.944 6.74341L133.251 21.2223H132.392L126.416 10.6459L125.183 21.2223H123.691L125.376 6.74341H126.194L132.191 17.3944L133.436 6.74341H134.944ZM142.971 11.6898L141.857 21.2223H140.365L140.513 20.1245L140.476 20.0706C139.782 20.9613 139.071 21.4087 138.343 21.4087C137.62 21.4087 137.007 21.04 136.498 20.3067C135.988 19.5735 135.737 18.6828 135.737 17.6388C135.737 15.8284 136.21 14.3371 137.151 13.1605C138.092 11.984 139.412 11.3998 141.101 11.3998C141.792 11.3957 142.412 11.4951 142.971 11.6898ZM140.686 18.4674L141.335 12.9617C141.175 12.9492 141.019 12.9409 140.871 12.9409C139.695 12.9409 138.804 13.3925 138.187 14.2915C137.575 15.1946 137.266 16.2013 137.266 17.3115C137.266 18.0779 137.414 18.7035 137.71 19.1923C138.006 19.6812 138.38 19.9215 138.832 19.9215C139.194 19.9215 139.589 19.706 140.02 19.2752C140.456 18.8485 140.678 18.5792 140.686 18.4674ZM149.666 19.0971L149.494 20.837C148.807 21.2927 148.072 21.5206 147.291 21.5206C146.23 21.5206 145.384 21.1229 144.751 20.3233C144.118 19.5238 143.801 18.4591 143.801 17.1251C143.801 15.5136 144.282 14.1589 145.24 13.0528C146.202 11.9467 147.426 11.3957 148.922 11.3957C149.301 11.3957 149.753 11.4496 150.283 11.5614L150.086 13.1564C149.712 13.0528 149.333 12.9989 148.943 12.9989C147.907 12.9989 147.044 13.4008 146.358 14.2003C145.671 14.9999 145.33 15.9361 145.33 17.0091C145.33 17.9081 145.523 18.6124 145.91 19.1302C146.296 19.6439 146.826 19.9008 147.496 19.9008C148.211 19.9049 148.935 19.6356 149.666 19.0971ZM153.164 11.6898L152.054 21.2264H150.562L151.672 11.6898H153.164ZM151.832 8.70292C151.832 8.41293 151.919 8.16437 152.087 7.96137C152.256 7.75838 152.457 7.65481 152.691 7.65481C152.926 7.65481 153.127 7.75838 153.295 7.96137C153.464 8.16437 153.55 8.41293 153.55 8.70292C153.55 8.98463 153.464 9.22905 153.295 9.43205C153.127 9.63504 152.926 9.73861 152.691 9.73861C152.457 9.73861 152.256 9.63504 152.087 9.43205C151.919 9.22905 151.832 8.98463 151.832 8.70292ZM157.886 11.3957C158.774 11.3957 159.485 11.7727 160.024 12.5308C160.558 13.2889 160.829 14.2956 160.829 15.5509C160.829 17.2908 160.467 18.7242 159.744 19.8428C159.021 20.9613 158.133 21.5206 157.077 21.5206C156.148 21.5206 155.42 21.1436 154.894 20.3896C154.368 19.6356 154.105 18.5916 154.105 17.2494C154.105 15.584 154.471 14.1921 155.198 13.0735C155.922 11.9591 156.822 11.3957 157.886 11.3957ZM157.886 12.8167C157.274 12.8167 156.744 13.2765 156.3 14.1879C155.856 15.1035 155.634 16.1847 155.634 17.4358C155.634 18.1815 155.766 18.7905 156.033 19.2586C156.3 19.7268 156.629 19.9629 157.027 19.9629C157.652 19.9629 158.186 19.5362 158.63 18.6786C159.074 17.8211 159.296 16.744 159.296 15.4432C159.296 14.6436 159.169 14.0015 158.91 13.5251C158.651 13.0487 158.31 12.8167 157.886 12.8167ZM158.454 7.0044H160.233L158.24 10.1032H157.258L158.454 7.0044ZM164.495 11.6898L164.294 13.3759L164.335 13.4091C165.178 12.1663 166.053 11.5448 166.957 11.5448C167.57 11.5448 168.046 11.8141 168.383 12.3568C168.72 12.8995 168.889 13.5996 168.889 14.4572C168.889 14.6975 168.872 14.9502 168.835 15.2153L168.083 21.2223H166.608L167.331 15.149C167.36 14.9336 167.372 14.7389 167.372 14.5566C167.372 14.0595 167.286 13.6784 167.113 13.4174C166.941 13.1564 166.727 13.0238 166.468 13.0238C166.32 13.0238 166.152 13.0694 165.963 13.1605C165.778 13.2517 165.576 13.3884 165.362 13.5748C165.149 13.7612 164.886 14.0429 164.573 14.424C164.261 14.8052 164.097 15.0455 164.084 15.149L163.361 21.2223H161.885L162.995 11.6857H164.495V11.6898Z" fill="black"/>
</g>
<defs>
<clipPath id="clip0_1251_3627">
<rect width="168.889" height="35" fill="white"/>
</clipPath>
</defs>
</svg>
