<svg width="270" height="257" viewBox="0 0 270 257" fill="none" xmlns="http://www.w3.org/2000/svg">
<path d="M195.472 131.971V194H105.324M54.0572 131.971V194H105.324M105.324 194V108.602M114.54 171.208H147.95M114.54 181.306H147.95M195.472 122.45H129.517L105.324 92.7337M105.324 92.7337H54.0572L29 122.45H81.1305L105.324 92.7337ZM105.324 92.7337H116.844M141.325 40.5138L164.655 63.8829M141.325 63.8829L164.655 40.5138M190.816 81.7704C197.006 73.6897 200.75 63.5811 200.944 52.6311C201.426 25.4671 179.387 2.51704 152.27 3.00773C125.621 3.48993 104.851 25.9365 105.324 52.6311C105.788 78.8393 126.107 100.05 152.27 100.523C164.246 100.74 175.195 96.4768 183.663 89.2931M190.816 81.7704L197.776 87.5406C197.776 87.5406 202.773 86.3596 204.688 87.5406C208.433 89.8486 238.926 120.43 240.114 123.604C241.734 127.932 241.331 133.633 237.234 137.164C233.772 140.148 228.018 140.626 225.713 139.184C222.217 136.994 190.535 105.717 188.56 102.254C187.382 100.191 189.136 96.1958 189.136 96.1958L183.663 89.2931M190.816 81.7704C188.702 84.5303 186.304 87.0536 183.663 89.2931M152.27 17.4331C133.262 17.8315 118.336 33.5874 118.572 52.6311C118.806 71.4323 133.504 86.5702 152.27 86.9635C171.435 87.3652 187.169 71.8314 187.408 52.6311C187.649 33.1933 171.672 17.0265 152.27 17.4331Z" stroke="#575757" stroke-width="5"/>
<path d="M21.816 222.8C22.296 222.8 22.68 222.968 22.968 223.304C23.28 223.616 23.436 224.012 23.436 224.492V246.164C23.436 246.692 23.256 247.136 22.896 247.496C22.56 247.832 22.128 248 21.6 248C21.36 248 21.096 247.952 20.808 247.856C20.544 247.76 20.34 247.628 20.196 247.46L5.4 228.272L6.228 227.804V246.344C6.228 246.8 6.072 247.196 5.76 247.532C5.448 247.844 5.052 248 4.572 248C4.068 248 3.66 247.844 3.348 247.532C3.06 247.196 2.916 246.8 2.916 246.344V224.636C2.916 224.084 3.096 223.64 3.456 223.304C3.816 222.968 4.248 222.8 4.752 222.8C5.016 222.8 5.292 222.86 5.58 222.98C5.892 223.076 6.12 223.232 6.264 223.448L20.7 242.24L20.16 242.744V224.492C20.16 224.012 20.316 223.616 20.628 223.304C20.94 222.968 21.336 222.8 21.816 222.8ZM47.0663 238.532C47.0663 240.452 46.6463 242.156 45.8063 243.644C44.9663 245.108 43.8263 246.26 42.3863 247.1C40.9463 247.94 39.3263 248.36 37.5263 248.36C35.7263 248.36 34.1063 247.94 32.6663 247.1C31.2263 246.26 30.0743 245.108 29.2103 243.644C28.3703 242.156 27.9503 240.452 27.9503 238.532C27.9503 236.588 28.3703 234.884 29.2103 233.42C30.0743 231.932 31.2263 230.768 32.6663 229.928C34.1063 229.064 35.7263 228.632 37.5263 228.632C39.3263 228.632 40.9463 229.064 42.3863 229.928C43.8263 230.768 44.9663 231.932 45.8063 233.42C46.6463 234.884 47.0663 236.588 47.0663 238.532ZM43.4663 238.532C43.4663 237.212 43.2023 236.072 42.6743 235.112C42.1463 234.128 41.4263 233.36 40.5143 232.808C39.6263 232.232 38.6303 231.944 37.5263 231.944C36.4223 231.944 35.4143 232.232 34.5023 232.808C33.5903 233.36 32.8703 234.128 32.3423 235.112C31.8143 236.072 31.5503 237.212 31.5503 238.532C31.5503 239.804 31.8143 240.932 32.3423 241.916C32.8703 242.9 33.5903 243.668 34.5023 244.22C35.4143 244.772 36.4223 245.048 37.5263 245.048C38.6303 245.048 39.6263 244.772 40.5143 244.22C41.4263 243.668 42.1463 242.9 42.6743 241.916C43.2023 240.932 43.4663 239.804 43.4663 238.532ZM65.3366 246.164C65.3126 246.692 65.1086 247.136 64.7246 247.496C64.3646 247.832 63.9326 248 63.4286 248C62.8766 248 62.4206 247.832 62.0606 247.496C61.7246 247.136 61.5566 246.692 61.5566 246.164V224.636C61.5566 224.108 61.7366 223.676 62.0966 223.34C62.4566 222.98 62.9246 222.8 63.5006 222.8C63.9806 222.8 64.4006 222.98 64.7606 223.34C65.1446 223.676 65.3366 224.108 65.3366 224.636V246.164ZM70.5063 229.28H78.9663C79.4463 229.28 79.8423 229.448 80.1543 229.784C80.4903 230.096 80.6583 230.492 80.6583 230.972C80.6583 231.428 80.4903 231.812 80.1543 232.124C79.8423 232.436 79.4463 232.592 78.9663 232.592H70.5063C70.0263 232.592 69.6183 232.436 69.2823 232.124C68.9703 231.788 68.8143 231.392 68.8143 230.936C68.8143 230.456 68.9703 230.06 69.2823 229.748C69.6183 229.436 70.0263 229.28 70.5063 229.28ZM74.2863 224.6C74.8143 224.6 75.2463 224.78 75.5823 225.14C75.9183 225.476 76.0863 225.908 76.0863 226.436V243.14C76.0863 243.572 76.1583 243.92 76.3023 244.184C76.4463 244.448 76.6383 244.628 76.8783 244.724C77.1423 244.82 77.4063 244.868 77.6703 244.868C77.9343 244.868 78.1623 244.82 78.3543 244.724C78.5703 244.628 78.8223 244.58 79.1103 244.58C79.3983 244.58 79.6623 244.712 79.9023 244.976C80.1423 245.24 80.2623 245.6 80.2623 246.056C80.2623 246.632 79.9503 247.1 79.3263 247.46C78.7023 247.82 78.0303 248 77.3103 248C76.9023 248 76.4223 247.964 75.8703 247.892C75.3183 247.82 74.7783 247.64 74.2503 247.352C73.7463 247.064 73.3263 246.608 72.9903 245.984C72.6543 245.336 72.4863 244.436 72.4863 243.284V226.436C72.4863 225.908 72.6543 225.476 72.9903 225.14C73.3503 224.78 73.7823 224.6 74.2863 224.6ZM93.2892 248.36C91.2972 248.36 89.5692 247.952 88.1052 247.136C86.6412 246.296 85.5012 245.156 84.6852 243.716C83.8932 242.252 83.4972 240.584 83.4972 238.712C83.4972 236.6 83.9172 234.8 84.7572 233.312C85.6212 231.8 86.7372 230.648 88.1052 229.856C89.4732 229.04 90.9252 228.632 92.4612 228.632C93.6372 228.632 94.7532 228.872 95.8092 229.352C96.8652 229.808 97.8012 230.456 98.6172 231.296C99.4572 232.112 100.117 233.084 100.597 234.212C101.077 235.316 101.329 236.528 101.353 237.848C101.329 238.328 101.137 238.724 100.777 239.036C100.417 239.348 99.9972 239.504 99.5172 239.504H85.5132L84.6492 236.444H98.1852L97.5012 237.092V236.192C97.4532 235.352 97.1772 234.62 96.6732 233.996C96.1692 233.348 95.5452 232.856 94.8012 232.52C94.0572 232.16 93.2772 231.98 92.4612 231.98C91.7412 231.98 91.0452 232.1 90.3732 232.34C89.7252 232.556 89.1372 232.916 88.6092 233.42C88.1052 233.924 87.6972 234.596 87.3852 235.436C87.0972 236.252 86.9532 237.272 86.9532 238.496C86.9532 239.816 87.2292 240.968 87.7812 241.952C88.3332 242.936 89.0772 243.704 90.0132 244.256C90.9492 244.784 91.9812 245.048 93.1092 245.048C93.9972 245.048 94.7292 244.964 95.3052 244.796C95.8812 244.604 96.3612 244.376 96.7452 244.112C97.1292 243.848 97.4652 243.596 97.7532 243.356C98.1132 243.14 98.4732 243.032 98.8332 243.032C99.2652 243.032 99.6252 243.188 99.9132 243.5C100.201 243.788 100.345 244.136 100.345 244.544C100.345 245.072 100.081 245.552 99.5532 245.984C98.9052 246.608 98.0052 247.16 96.8532 247.64C95.7252 248.12 94.5372 248.36 93.2892 248.36ZM114.926 228.74C116.702 228.74 118.07 229.184 119.03 230.072C119.99 230.936 120.626 232.112 120.938 233.6L120.362 233.42L120.614 232.844C120.926 232.22 121.394 231.596 122.018 230.972C122.666 230.324 123.434 229.796 124.322 229.388C125.21 228.956 126.158 228.74 127.166 228.74C128.822 228.74 130.106 229.1 131.018 229.82C131.93 230.516 132.566 231.464 132.926 232.664C133.286 233.84 133.466 235.16 133.466 236.624V246.164C133.466 246.692 133.298 247.136 132.962 247.496C132.626 247.832 132.194 248 131.666 248C131.162 248 130.73 247.832 130.37 247.496C130.034 247.136 129.866 246.692 129.866 246.164V236.66C129.866 235.82 129.746 235.052 129.506 234.356C129.29 233.66 128.894 233.108 128.318 232.7C127.766 232.268 126.998 232.052 126.014 232.052C125.078 232.052 124.238 232.268 123.494 232.7C122.774 233.108 122.21 233.66 121.802 234.356C121.394 235.052 121.19 235.82 121.19 236.66V246.164C121.19 246.692 121.022 247.136 120.686 247.496C120.35 247.832 119.918 248 119.39 248C118.862 248 118.43 247.832 118.094 247.496C117.758 247.136 117.59 246.692 117.59 246.164V236.624C117.59 235.784 117.47 235.016 117.23 234.32C117.014 233.624 116.63 233.072 116.078 232.664C115.526 232.256 114.758 232.052 113.774 232.052C112.838 232.052 112.01 232.256 111.29 232.664C110.57 233.072 110.006 233.624 109.598 234.32C109.214 235.016 109.022 235.784 109.022 236.624V246.164C109.022 246.692 108.842 247.136 108.482 247.496C108.146 247.832 107.726 248 107.222 248C106.694 248 106.262 247.832 105.926 247.496C105.59 247.136 105.422 246.692 105.422 246.164V230.9C105.422 230.372 105.59 229.94 105.926 229.604C106.262 229.244 106.694 229.064 107.222 229.064C107.726 229.064 108.146 229.244 108.482 229.604C108.842 229.94 109.022 230.372 109.022 230.9V233.024L108.338 233.42C108.506 232.892 108.782 232.352 109.166 231.8C109.55 231.248 110.03 230.744 110.606 230.288C111.206 229.832 111.866 229.46 112.586 229.172C113.306 228.884 114.086 228.74 114.926 228.74ZM137.388 245.048C137.172 244.712 137.076 244.328 137.1 243.896C137.124 243.44 137.376 243.056 137.856 242.744C138.192 242.528 138.54 242.444 138.9 242.492C139.284 242.516 139.644 242.696 139.98 243.032C140.652 243.776 141.396 244.364 142.212 244.796C143.052 245.228 144.06 245.444 145.236 245.444C145.716 245.42 146.208 245.348 146.712 245.228C147.216 245.084 147.648 244.844 148.008 244.508C148.368 244.148 148.548 243.632 148.548 242.96C148.548 242.36 148.356 241.88 147.972 241.52C147.588 241.16 147.084 240.872 146.46 240.656C145.836 240.416 145.164 240.2 144.444 240.008C143.676 239.792 142.896 239.552 142.104 239.288C141.336 239.024 140.64 238.688 140.016 238.28C139.392 237.848 138.876 237.296 138.468 236.624C138.084 235.952 137.892 235.124 137.892 234.14C137.892 233.012 138.204 232.04 138.828 231.224C139.476 230.408 140.304 229.772 141.312 229.316C142.344 228.86 143.46 228.632 144.66 228.632C145.356 228.632 146.088 228.728 146.856 228.92C147.624 229.088 148.368 229.364 149.088 229.748C149.808 230.132 150.432 230.636 150.96 231.26C151.2 231.572 151.332 231.944 151.356 232.376C151.404 232.808 151.212 233.192 150.78 233.528C150.492 233.768 150.144 233.876 149.736 233.852C149.328 233.828 148.992 233.696 148.728 233.456C148.272 232.88 147.684 232.436 146.964 232.124C146.244 231.788 145.428 231.62 144.516 231.62C144.06 231.62 143.58 231.692 143.076 231.836C142.596 231.956 142.188 232.184 141.852 232.52C141.516 232.856 141.348 233.348 141.348 233.996C141.348 234.596 141.54 235.076 141.924 235.436C142.332 235.796 142.86 236.096 143.508 236.336C144.156 236.576 144.864 236.792 145.632 236.984C146.376 237.176 147.108 237.404 147.828 237.668C148.572 237.932 149.232 238.28 149.808 238.712C150.408 239.12 150.888 239.66 151.248 240.332C151.632 240.98 151.824 241.808 151.824 242.816C151.824 243.992 151.476 245 150.78 245.84C150.108 246.656 149.244 247.28 148.188 247.712C147.156 248.144 146.064 248.36 144.912 248.36C143.544 248.36 142.176 248.12 140.808 247.64C139.464 247.136 138.324 246.272 137.388 245.048ZM168.019 248C167.443 248 166.975 247.832 166.615 247.496C166.279 247.136 166.111 246.692 166.111 246.164V224.636C166.111 224.108 166.291 223.676 166.651 223.34C167.011 222.98 167.443 222.8 167.947 222.8H180.115C180.643 222.8 181.075 222.968 181.411 223.304C181.771 223.64 181.951 224.06 181.951 224.564C181.951 225.02 181.771 225.416 181.411 225.752C181.075 226.088 180.643 226.256 180.115 226.256H169.603L169.855 225.896V233.924L169.639 233.492H178.495C179.023 233.492 179.455 233.66 179.791 233.996C180.151 234.332 180.331 234.752 180.331 235.256C180.331 235.712 180.151 236.108 179.791 236.444C179.455 236.78 179.023 236.948 178.495 236.948H169.567L169.855 236.66V246.164C169.855 246.692 169.675 247.136 169.315 247.496C168.955 247.832 168.523 248 168.019 248ZM203.617 238.532C203.617 240.452 203.197 242.156 202.357 243.644C201.517 245.108 200.377 246.26 198.937 247.1C197.497 247.94 195.877 248.36 194.077 248.36C192.277 248.36 190.657 247.94 189.217 247.1C187.777 246.26 186.625 245.108 185.761 243.644C184.921 242.156 184.501 240.452 184.501 238.532C184.501 236.588 184.921 234.884 185.761 233.42C186.625 231.932 187.777 230.768 189.217 229.928C190.657 229.064 192.277 228.632 194.077 228.632C195.877 228.632 197.497 229.064 198.937 229.928C200.377 230.768 201.517 231.932 202.357 233.42C203.197 234.884 203.617 236.588 203.617 238.532ZM200.017 238.532C200.017 237.212 199.753 236.072 199.225 235.112C198.697 234.128 197.977 233.36 197.065 232.808C196.177 232.232 195.181 231.944 194.077 231.944C192.973 231.944 191.965 232.232 191.053 232.808C190.141 233.36 189.421 234.128 188.893 235.112C188.365 236.072 188.101 237.212 188.101 238.532C188.101 239.804 188.365 240.932 188.893 241.916C189.421 242.9 190.141 243.668 191.053 244.22C191.965 244.772 192.973 245.048 194.077 245.048C195.181 245.048 196.177 244.772 197.065 244.22C197.977 243.668 198.697 242.9 199.225 241.916C199.753 240.932 200.017 239.804 200.017 238.532ZM221.804 229.064C222.308 229.064 222.728 229.244 223.064 229.604C223.424 229.94 223.604 230.372 223.604 230.9V240.368C223.604 242.864 222.908 244.82 221.516 246.236C220.124 247.628 218.156 248.324 215.612 248.324C213.092 248.324 211.136 247.628 209.744 246.236C208.376 244.82 207.692 242.864 207.692 240.368V230.9C207.692 230.372 207.86 229.94 208.196 229.604C208.532 229.244 208.964 229.064 209.492 229.064C209.996 229.064 210.416 229.244 210.752 229.604C211.112 229.94 211.292 230.372 211.292 230.9V240.368C211.292 241.928 211.652 243.092 212.372 243.86C213.116 244.628 214.196 245.012 215.612 245.012C217.052 245.012 218.144 244.628 218.888 243.86C219.632 243.092 220.004 241.928 220.004 240.368V230.9C220.004 230.372 220.172 229.94 220.508 229.604C220.844 229.244 221.276 229.064 221.804 229.064ZM238.366 228.632C240.07 228.632 241.39 228.992 242.326 229.712C243.262 230.408 243.91 231.356 244.27 232.556C244.654 233.732 244.846 235.052 244.846 236.516V246.164C244.846 246.692 244.666 247.136 244.306 247.496C243.97 247.832 243.55 248 243.046 248C242.518 248 242.086 247.832 241.75 247.496C241.414 247.136 241.246 246.692 241.246 246.164V236.552C241.246 235.688 241.126 234.92 240.886 234.248C240.646 233.552 240.226 233 239.626 232.592C239.05 232.16 238.234 231.944 237.178 231.944C236.194 231.944 235.33 232.16 234.586 232.592C233.842 233 233.254 233.552 232.822 234.248C232.414 234.92 232.21 235.688 232.21 236.552V246.164C232.21 246.692 232.03 247.136 231.67 247.496C231.334 247.832 230.914 248 230.41 248C229.882 248 229.45 247.832 229.114 247.496C228.778 247.136 228.61 246.692 228.61 246.164V230.9C228.61 230.372 228.778 229.94 229.114 229.604C229.45 229.244 229.882 229.064 230.41 229.064C230.914 229.064 231.334 229.244 231.67 229.604C232.03 229.94 232.21 230.372 232.21 230.9V232.916L231.562 233.276C231.73 232.748 232.018 232.22 232.426 231.692C232.858 231.14 233.374 230.636 233.974 230.18C234.574 229.7 235.246 229.328 235.99 229.064C236.734 228.776 237.526 228.632 238.366 228.632ZM265.36 221.36C265.888 221.36 266.32 221.528 266.656 221.864C266.992 222.2 267.16 222.644 267.16 223.196V246.164C267.16 246.692 266.992 247.136 266.656 247.496C266.32 247.832 265.888 248 265.36 248C264.856 248 264.424 247.832 264.064 247.496C263.728 247.136 263.56 246.692 263.56 246.164V243.572L264.316 243.608C264.316 244.04 264.136 244.532 263.776 245.084C263.44 245.612 262.972 246.128 262.372 246.632C261.772 247.136 261.064 247.556 260.248 247.892C259.432 248.204 258.556 248.36 257.62 248.36C255.964 248.36 254.476 247.94 253.156 247.1C251.836 246.236 250.792 245.072 250.024 243.608C249.256 242.12 248.872 240.416 248.872 238.496C248.872 236.576 249.256 234.884 250.024 233.42C250.792 231.932 251.824 230.768 253.12 229.928C254.44 229.064 255.904 228.632 257.512 228.632C258.52 228.632 259.456 228.8 260.32 229.136C261.208 229.472 261.976 229.904 262.624 230.432C263.272 230.96 263.776 231.524 264.136 232.124C264.496 232.7 264.676 233.252 264.676 233.78L263.56 233.888V223.196C263.56 222.668 263.728 222.236 264.064 221.9C264.424 221.54 264.856 221.36 265.36 221.36ZM258.016 245.048C259.168 245.048 260.164 244.76 261.004 244.184C261.868 243.608 262.54 242.828 263.02 241.844C263.5 240.86 263.74 239.744 263.74 238.496C263.74 237.248 263.5 236.132 263.02 235.148C262.54 234.164 261.868 233.384 261.004 232.808C260.14 232.232 259.144 231.944 258.016 231.944C256.912 231.944 255.928 232.232 255.064 232.808C254.224 233.384 253.552 234.164 253.048 235.148C252.568 236.132 252.328 237.248 252.328 238.496C252.328 239.744 252.568 240.86 253.048 241.844C253.552 242.828 254.224 243.608 255.064 244.184C255.928 244.76 256.912 245.048 258.016 245.048Z" fill="#575757"/>
</svg>
