<svg width="250" height="35" viewBox="0 0 250 35" fill="none" xmlns="http://www.w3.org/2000/svg">
<path fill-rule="evenodd" clip-rule="evenodd" d="M64.6453 23.0137C64.6453 26.3944 62.7419 29.2349 59.5034 29.2349C56.2769 29.2349 54.3675 26.3944 54.3675 23.0137C54.3675 19.5865 56.0324 16.749 59.5034 16.749C62.8334 16.749 64.6453 19.5865 64.6453 23.0137ZM46.1971 23.0137C46.1971 30.3063 51.75 34.9655 59.5034 34.9655C67.2148 34.9655 72.8142 30.3063 72.8142 23.0137C72.8142 15.7811 67.0588 11.0169 59.5034 11.0169C51.9495 11.0169 46.1971 15.8111 46.1971 23.0137ZM150.195 17.2367C153.237 17.2367 154.982 19.9586 154.982 23.0197C154.982 26.5235 152.961 28.8238 150.195 28.8238C147.128 28.8238 145.362 26.4109 145.362 23.0197C145.362 19.525 147.519 17.2367 150.195 17.2367ZM137.534 2.17428V34.4763H145.101L145.217 32.3786H145.341C145.884 32.9638 148.092 34.988 152.438 34.988C158.184 34.988 163.23 30.8435 163.23 22.6116C163.23 16.0242 158.679 11.0439 152.487 11.0439C148.959 11.0439 146.485 12.6529 145.715 13.1539C145.659 13.1899 145.613 13.2202 145.575 13.2437H145.485V2.17428H137.534ZM95.6448 1.31572C96.4825 0.478 97.617 0.00513056 98.8014 0C99.9859 0.00513056 101.12 0.478 101.958 1.31572C102.796 2.15343 103.269 3.2882 103.274 4.4731C103.27 5.65863 102.797 6.7944 101.96 7.63285C101.122 8.47129 99.9865 8.94445 98.8014 8.94919C97.6166 8.94367 96.4818 8.47026 95.6442 7.63198C94.8065 6.7937 94.3336 5.65839 94.3285 4.4731C94.334 3.2882 94.8071 2.15343 95.6448 1.31572ZM102.793 11.6006H94.81V34.5288H102.793V11.6006ZM205.018 34.4958H197.271L197.272 11.6322H204.253L204.331 14.1696H204.495C204.559 14.1114 204.629 14.0474 204.704 13.9784C205.759 13.0078 207.868 11.068 211.693 11.068C217.822 11.068 221.164 15.5125 221.164 20.7029V34.4958H213.414V22.6626C213.414 19.738 211.89 17.9914 209.205 17.9914C206.857 17.9914 205.018 19.8881 205.018 22.6626V34.4958ZM234.002 34.4988H226.06V2.20128H234.002V21.063H234.086L240.937 11.6186H249.766L241.468 22.3565L249.985 34.4988H241.144L234.086 23.8915H234.002V34.4988ZM43.9223 11.8664C44.0222 11.896 44.1048 11.9205 44.1691 11.9383L43.7821 18.5826C43.758 18.5707 43.7322 18.5579 43.7049 18.5443C43.0619 18.2242 41.5393 17.4662 39.8401 17.4662C36.6977 17.4662 34.1852 19.6345 34.1852 22.9972C34.1852 26.2009 36.5327 28.4772 39.7472 28.4772C41.3391 28.4772 42.7464 27.7924 43.4911 27.43C43.6031 27.3755 43.7002 27.3282 43.7806 27.2917L44.1691 33.9721C44.1178 33.9873 44.0496 34.0088 43.9655 34.0354C43.1817 34.2835 41.0121 34.97 38.1647 34.97C30.7608 34.97 25.9293 29.7991 25.9293 22.9972C25.9293 15.5155 31.3082 11.0214 38.4857 11.0214C41.0736 11.0214 43.0927 11.6203 43.9223 11.8664ZM119.644 28.9648C116.908 28.9648 114.793 26.597 114.793 22.8096C114.793 19.687 116.795 17.1436 119.644 17.1421C122.398 17.1421 124.54 19.5715 124.54 23.1203C124.54 26.642 122.123 28.9648 119.644 28.9648ZM132.394 34.4943V11.5871H124.537L124.459 13.6594H124.252C124.212 13.6231 124.169 13.5823 124.121 13.5377C123.345 12.8102 121.475 11.0559 117.251 11.0559C110.659 11.0559 106.361 16.3693 106.361 23.0197C106.361 30.1893 111.208 35 116.74 35C121.366 35 123.239 33.2465 124.171 32.3736C124.244 32.3049 124.312 32.2416 124.375 32.185H124.543L124.658 34.4943H132.394ZM179.365 28.9543C176.628 28.9543 174.514 26.585 174.514 22.7961C174.514 19.675 176.514 17.1316 179.365 17.1316C182.118 17.1316 184.261 19.5595 184.261 23.1083C184.261 26.63 181.843 28.9543 179.365 28.9543ZM192.117 34.4853V11.5766H184.258L184.18 13.6489H183.975C183.934 13.6114 183.888 13.569 183.839 13.5226C183.058 12.7922 181.19 11.0439 176.973 11.0439C170.381 11.0439 166.083 16.3558 166.083 23.0107C166.083 30.1788 170.93 34.9925 176.463 34.9925C181.085 34.9925 182.96 33.2361 183.893 32.3624C183.967 32.2933 184.035 32.2297 184.098 32.173H184.263L184.378 34.4853H192.117ZM9.56301 34.9385C5.97355 34.9385 2.58809 34.3203 0.36212 33.6465L1.14061 26.1108C1.31331 26.1875 1.51308 26.2805 1.73705 26.3846C3.38827 27.1528 6.35464 28.5327 9.48501 28.5327C12.074 28.5327 14.0989 27.7614 14.0989 25.7282C14.0989 23.5102 11.6143 22.594 8.73218 21.5313C4.75271 20.0638 0.015625 18.317 0.015625 12.4785C0.015625 5.82958 6.63504 3.20514 13.3475 3.20514C16.2874 3.20514 19.4134 3.60579 21.4744 4.30654L20.8339 11.3651C20.0044 11.0289 16.2694 9.61093 13.3175 9.61093C11.1905 9.61093 9.02001 10.0626 9.02001 12.1513C9.02001 13.732 11.135 14.4884 13.728 15.4157C17.8355 16.8846 23.1424 18.7824 23.1424 25.065C23.1424 32.5301 16.3609 34.9385 9.56301 34.9385ZM88.7425 28.6347C89.4805 28.6347 90.5545 28.3586 90.9475 28.2506L89.9635 34.5198C88.885 34.7254 87.3146 34.9535 85.6031 34.9535C79.7097 34.9535 77.3967 31.3822 77.3967 26.3974V17.3372H73.9137V11.5796H77.3967V4.2015H85.3646V11.5796H90.37V17.3372H85.3646V25.0815C85.3646 27.8785 87.1286 28.6347 88.7425 28.6347Z" fill="#EE3224"/>
</svg>
